<?xml version="1.0" encoding="UTF-8"?>
<svg version="1.1" xmlns="http://www.w3.org/2000/svg" width="4500" height="4500">
<path d="M0 0 C1485 0 2970 0 4500 0 C4500 1485 4500 2970 4500 4500 C3015 4500 1530 4500 0 4500 C0 3015 0 1530 0 0 Z " fill="#101010" transform="translate(0,0)"/>
<path d="M0 0 C2.07149272 -0.00323353 4.14298523 -0.00659894 6.21447754 -0.01008606 C10.50643441 -0.0159915 14.7983714 -0.01793475 19.09033203 -0.01733398 C23.42598627 -0.01725254 27.76153525 -0.02424026 32.09716797 -0.0378418 C123.24185984 -0.31932759 123.24185984 -0.31932759 142.09375 14.16796875 C150.78132728 23.64112483 151.90849686 34.74081564 151.4609375 47 C150.67461312 60.27485845 147.75885625 72.35271361 142.65625 84.60546875 C142.20668945 85.69311523 142.20668945 85.69311523 141.74804688 86.80273438 C140.86833868 88.92662856 139.98215254 91.04769865 139.09375 93.16796875 C138.60261719 94.34359375 138.11148438 95.51921875 137.60546875 96.73046875 C135.96458039 100.46168776 134.18534279 104.09549712 132.34375 107.73046875 C131.63126257 109.14180199 130.91902773 110.55326277 130.20703125 111.96484375 C129.85205566 112.66802734 129.49708008 113.37121094 129.13134766 114.09570312 C128.16032759 116.03500155 127.20713056 117.98170904 126.26171875 119.93359375 C123.17674264 126.2567502 119.92052549 132.28057362 116.0625 138.1640625 C113.58375996 141.94610831 111.1803615 145.77258916 108.78125 149.60546875 C108.3483667 150.29237793 107.9154834 150.97928711 107.46948242 151.68701172 C105.11654131 155.43804813 105.11654131 155.43804813 103.015625 159.33203125 C101.79182275 161.76926454 100.24376781 163.88977184 98.65625 166.10546875 C96.3091783 169.385286 94.14788803 172.69776282 92.09375 176.16796875 C90.14273294 179.20079976 88.11567624 182.18205343 86.09375 185.16796875 C85.48104248 186.07361572 85.48104248 186.07361572 84.85595703 186.99755859 C74.88716781 201.70413279 74.88716781 201.70413279 69.43359375 208.37109375 C68.04921616 210.22769344 67.11775462 212.09567482 66.09375 214.16796875 C65.20698438 215.4393556 64.28836537 216.68895305 63.34375 217.91796875 C62.54904297 218.96017578 62.54904297 218.96017578 61.73828125 220.0234375 C61.19558594 220.73113281 60.65289063 221.43882812 60.09375 222.16796875 C58.08316103 224.82680807 56.08441294 227.49418287 54.09375 230.16796875 C53.60261719 230.82410156 53.11148438 231.48023437 52.60546875 232.15625 C49.99046355 235.32852948 49.99046355 235.32852948 49.09375 239.16796875 C48.43375 239.16796875 47.77375 239.16796875 47.09375 239.16796875 C46.866875 239.70421875 46.64 240.24046875 46.40625 240.79296875 C44.35399711 244.50656921 41.49225008 247.55370009 38.7265625 250.74609375 C36.41717304 253.45176897 34.64025495 255.9820358 33.09375 259.16796875 C31.34483968 261.23596433 29.50651973 263.19429286 27.65234375 265.16796875 C26.05055421 267.22339794 25.50835561 268.6235398 25.09375 271.16796875 C24.43375 271.16796875 23.77375 271.16796875 23.09375 271.16796875 C22.84625 271.74546875 22.59875 272.32296875 22.34375 272.91796875 C20.92086157 275.47916792 19.1604452 277.10127355 17.09375 279.16796875 C16.0873225 280.83076202 15.08789593 282.49780359 14.09375 284.16796875 C12.89717664 285.61666983 11.69888122 287.0640288 10.48706055 288.5 C8.16754978 291.27674743 5.94724259 294.13053922 3.71875 296.98046875 C3.00138672 297.89687134 3.00138672 297.89687134 2.26953125 298.83178711 C1.31639369 300.04970294 0.36358478 301.26787606 -0.58886719 302.48632812 C-1.74481484 303.96189659 -2.90705854 305.43252828 -4.0703125 306.90234375 C-7.44680771 311.17227489 -7.44680771 311.17227489 -10.40625 315.73046875 C-11.76034862 317.930879 -13.11740419 319.57610647 -14.84375 321.48046875 C-18.94380776 326.06390174 -22.55805378 330.96710092 -26.22045898 335.8996582 C-29.55007123 340.37712809 -32.93862582 344.79664926 -36.40625 349.16796875 C-40.36965133 354.16701474 -44.22345797 359.23699525 -48.03125 364.35546875 C-53.2944661 371.42212901 -58.74657207 378.28894802 -64.46484375 384.99609375 C-66.27534861 387.12357127 -67.90743407 389.16999345 -69.3203125 391.5859375 C-70.84057423 394.06104342 -72.42804446 395.98895647 -74.40625 398.10546875 C-78.31331139 402.41818132 -81.90425369 406.91140977 -85.47094727 411.50366211 C-89.7203886 416.96472403 -94.08457931 422.32727432 -98.4909668 427.66235352 C-100.81034475 430.49104823 -102.98227735 433.28222135 -105.01171875 436.33203125 C-106.90668641 439.16862201 -108.95473103 441.55318529 -111.28125 444.04296875 C-113.89347574 446.89612793 -116.39824084 449.71478328 -118.65625 452.85546875 C-121.66552946 457.00590755 -125.03095053 460.81559183 -128.40625 464.66796875 C-132.32171154 469.13809333 -136.11292956 473.6071384 -139.59765625 478.42578125 C-141.58296019 481.06890231 -143.79175157 483.50068464 -145.98828125 485.96875 C-148.9786138 489.39758345 -151.82084656 492.94500052 -154.68359375 496.48046875 C-157.25282193 499.58702233 -159.93959755 502.56647225 -162.69140625 505.51171875 C-164.20197305 507.22880389 -164.20197305 507.22880389 -163.90625 510.16796875 C-165.33984375 511.60546875 -165.33984375 511.60546875 -167.34375 513.16796875 C-173.58834057 518.38849099 -179.41705191 524.75742419 -182.90625 532.16796875 C-184.21662934 533.85274219 -185.55468325 535.51605384 -186.90625 537.16796875 C-188.35664074 539.05865668 -189.78370866 540.96484482 -191.203125 542.87890625 C-192.40818801 544.49855516 -193.62850813 546.10690432 -194.859375 547.70703125 C-200.92379408 555.73891453 -208.12018643 565.40635484 -207.96875 575.85546875 C-207.95521484 577.06783203 -207.95521484 577.06783203 -207.94140625 578.3046875 C-207.92980469 578.91957031 -207.91820312 579.53445313 -207.90625 580.16796875 C-203.48618514 581.41668662 -198.12653899 582.27811325 -193.90625 580.16796875 C-191.57435655 579.89841042 -189.24303493 579.72289498 -186.90234375 579.546875 C-186.24363281 579.42183594 -185.58492187 579.29679687 -184.90625 579.16796875 C-184.57625 578.50796875 -184.24625 577.84796875 -183.90625 577.16796875 C-183.12636719 577.0596875 -182.34648438 576.95140625 -181.54296875 576.83984375 C-176.24256294 575.86060659 -171.63290769 573.58771051 -166.71875 571.41796875 C-114.16592247 548.81188167 -58.86052918 533.68061998 -3.90625 518.16796875 C-2.16882538 517.67689636 -2.16882538 517.67689636 -0.39630127 517.17590332 C25.48316804 509.86499712 51.43768833 502.91083972 77.51351929 496.33540344 C84.59971992 494.5482745 91.68144528 492.74405258 98.76171875 490.93359375 C123.53444451 484.60222912 148.32277722 478.33475129 173.12720108 472.12887192 C175.18557357 471.61377104 177.24384477 471.09826721 179.30209351 470.58267212 C194.24272797 466.84093404 209.19095964 463.14080753 224.18600464 459.62245178 C226.15913577 459.15239187 228.12629825 458.66120503 230.09375 458.16796875 C231.8010192 457.75788938 233.50830602 457.34788302 235.21574402 456.93850708 C256.67134601 451.77636025 277.94307843 446.06221365 299.15625 439.98046875 C300.32692017 439.64530243 301.49759033 439.31013611 302.70373535 438.96481323 C312.73991491 436.08656082 322.77389737 433.20530244 332.74951172 430.12255859 C333.80730331 429.79599777 334.86509491 429.46943695 335.9549408 429.13298035 C337.95027114 428.51387726 339.94400238 427.88958788 341.93580627 427.25923157 C342.82122604 426.98379013 343.70664581 426.70834869 344.61889648 426.42456055 C345.77566139 426.05925484 345.77566139 426.05925484 346.95579529 425.68656921 C349.09375 425.16796875 349.09375 425.16796875 353.09375 425.16796875 C353.42375 424.50796875 353.75375 423.84796875 354.09375 423.16796875 C356.7109375 422.31640625 356.7109375 422.31640625 359.96875 421.54296875 C361.03867188 421.28257812 362.10859375 421.0221875 363.2109375 420.75390625 C366.09375 420.16796875 366.09375 420.16796875 369.09375 420.16796875 C369.42375 419.50796875 369.75375 418.84796875 370.09375 418.16796875 C372.26708984 417.49658203 372.26708984 417.49658203 375.1796875 416.86328125 C382.85161074 415.05082042 390.26064468 412.56837163 397.71875 410.04296875 C399.27767184 409.51815776 400.83667524 408.99358901 402.39575195 408.46923828 C405.79853694 407.32361051 409.2001125 406.17446589 412.60107422 405.0234375 C416.35328454 403.75432368 420.10762479 402.49179617 423.86376953 401.234375 C472.24059554 385.03955344 519.88884537 367.31557724 567.23248291 348.31481934 C570.03836135 347.19016958 572.84576185 346.06941901 575.65380859 344.95019531 C586.78393324 340.51302692 597.86240447 335.97764824 608.8828125 331.2734375 C610.00816406 330.79326172 611.13351562 330.31308594 612.29296875 329.81835938 C614.61691622 328.82597816 616.93980029 327.83110371 619.26171875 326.83398438 C620.37417969 326.36025391 621.48664063 325.88652344 622.6328125 325.3984375 C623.63521973 324.96942139 624.63762695 324.54040527 625.67041016 324.09838867 C628.09375 323.16796875 628.09375 323.16796875 630.09375 323.16796875 C630.42375 322.50796875 630.75375 321.84796875 631.09375 321.16796875 C632.80186462 320.4619751 632.80186462 320.4619751 635.01928711 319.80175781 C640.23634141 318.15672274 645.23829409 316.13056603 650.28515625 314.02734375 C652.281355 313.2028694 654.27769903 312.37874677 656.27416992 311.55493164 C657.31415131 311.12487823 658.35413269 310.69482483 659.42562866 310.2517395 C712.83446498 288.20175706 767.58367281 266.25624377 824.64355469 255.80126953 C826.87090513 255.3924281 829.09580605 254.96989496 831.31738281 254.53076172 C847.55447974 251.36113986 863.5373118 250.77941603 880.03125 250.73046875 C881.51247345 250.72107269 881.51247345 250.72107269 883.02362061 250.71148682 C900.71269256 250.64048773 918.11911937 252.08314351 935.21875 256.85546875 C936.86638871 257.29984735 938.51479499 257.74139266 940.1640625 258.1796875 C940.85258301 258.37006592 941.54110352 258.56044434 942.25048828 258.7565918 C944.26697627 259.27687877 944.26697627 259.27687877 947.09375 259.16796875 C947.09375 259.82796875 947.09375 260.48796875 947.09375 261.16796875 C948.269375 261.37421875 949.445 261.58046875 950.65625 261.79296875 C974.85420745 267.26676568 1000.62703037 282.60700399 1014.46875 303.29296875 C1023.05626595 318.26027894 1022.63980703 333.39981739 1022.09375 350.16796875 C1021.43375 350.16796875 1020.77375 350.16796875 1020.09375 350.16796875 C1020.03058594 350.70421875 1019.96742187 351.24046875 1019.90234375 351.79296875 C1018.53259857 360.55933788 1014.8349627 368.2074331 1011.09375 376.16796875 C1010.56007813 377.3178125 1010.02640625 378.46765625 1009.4765625 379.65234375 C1006.83261075 385.15943497 1004.09308753 389.58049335 1000.09375 394.16796875 C1000.09375 395.15796875 1000.09375 396.14796875 1000.09375 397.16796875 C998.73046875 398.5703125 998.73046875 398.5703125 996.78125 400.10546875 C993.0070268 403.24396287 989.77921889 406.63313594 986.53125 410.29296875 C982.70309772 414.58020949 978.9452409 418.07127243 974.09375 421.16796875 C973.43375 421.82796875 972.77375 422.48796875 972.09375 423.16796875 C970.34008212 424.33990462 968.56645901 425.48216403 966.78125 426.60546875 C965.83636719 427.20230469 964.89148437 427.79914062 963.91796875 428.4140625 C960.1475329 430.75559182 956.3609867 433.03523631 952.46875 435.16796875 C949.22370679 436.88819773 949.22370679 436.88819773 947.53125 438.79296875 C946.09375 440.16796875 946.09375 440.16796875 943.453125 441.02734375 C939.73918943 442.28835443 936.37124868 443.98392627 932.90625 445.79296875 C926.61388278 449.0102991 920.23150609 451.92451596 913.71875 454.66796875 C912.89221924 455.01811035 912.06568848 455.36825195 911.21411133 455.72900391 C905.35359918 458.16796875 905.35359918 458.16796875 903.09375 458.16796875 C902.76375 459.15796875 902.43375 460.14796875 902.09375 461.16796875 C901.76375 460.50796875 901.43375 459.84796875 901.09375 459.16796875 C900.23994751 459.51577393 900.23994751 459.51577393 899.36889648 459.87060547 C896.75784392 460.93178475 894.14457955 461.98741006 891.53125 463.04296875 C890.63599609 463.40777344 889.74074219 463.77257813 888.81835938 464.1484375 C887.93857422 464.50292969 887.05878906 464.85742188 886.15234375 465.22265625 C885.35111084 465.54733887 884.54987793 465.87202148 883.72436523 466.20654297 C880.55471281 467.36497371 877.34297497 468.25701173 874.09375 469.16796875 C871.61178262 469.93103316 869.13286416 470.70052336 866.65625 471.48046875 C865.97248291 471.69485596 865.28871582 471.90924316 864.58422852 472.13012695 C862.42047178 472.80857002 860.25706685 473.48812443 858.09375 474.16796875 C855.23990143 475.06481969 852.38568719 475.96049322 849.53125 476.85546875 C848.88937744 477.05760986 848.24750488 477.25975098 847.58618164 477.46801758 C844.48715727 478.43957082 841.3936906 479.35384413 838.25390625 480.1875 C835.03345894 480.91771632 835.03345894 480.91771632 833.09375 483.16796875 C833.09375 482.50796875 833.09375 481.84796875 833.09375 481.16796875 C831.11415215 481.77072111 829.13509658 482.3752545 827.15625 482.98046875 C825.95484375 483.34785156 824.7534375 483.71523437 823.515625 484.09375 C820.95038671 484.89904741 818.43246914 485.75347742 815.90625 486.66796875 C810.86426665 488.37307585 805.67128492 489.41625848 800.4777832 490.54248047 C794.32973865 491.88002973 788.20568104 493.29885515 782.09375 494.79296875 C781.22709717 494.99905762 780.36044434 495.20514648 779.4675293 495.41748047 C778.66355713 495.61615723 777.85958496 495.81483398 777.03125 496.01953125 C776.31839844 496.19307129 775.60554688 496.36661133 774.87109375 496.54541016 C772.87078902 497.10186632 772.87078902 497.10186632 771.09375 499.16796875 C771.09375 498.50796875 771.09375 497.84796875 771.09375 497.16796875 C769.9912793 497.42376709 768.88880859 497.67956543 767.75292969 497.94311523 C742.05097233 503.89498375 716.30007827 509.48642187 690.43547058 514.68507385 C684.32026684 515.91533108 678.21403317 517.18291196 672.11010742 518.46801758 C656.16437411 521.82089014 640.16127799 524.86208663 624.15478516 527.90869141 C612.67874595 530.09355938 601.21232538 532.31313468 589.76171875 534.62817383 C582.91970571 536.01025553 576.06738317 537.32304932 569.203125 538.58984375 C566.49451176 539.09345526 563.7948498 539.62586238 561.09375 540.16796875 C559.8869458 540.40700928 558.6801416 540.6460498 557.43676758 540.89233398 C553.72298085 541.62869758 550.01121855 542.37483417 546.30004883 543.12426758 C544.699364 543.44603706 543.09811899 543.76503185 541.49633789 544.08129883 C539.1796502 544.53922942 536.86511364 545.00689264 534.55078125 545.4765625 C533.8330806 545.61621933 533.11537994 545.75587616 532.37593079 545.89976501 C528.32036595 546.69501703 528.32036595 546.69501703 525.09375 549.16796875 C525.09375 548.50796875 525.09375 547.84796875 525.09375 547.16796875 C517.5121113 548.69263188 509.931679 550.22318601 502.35205078 551.7578125 C499.77419908 552.2790228 497.1960757 552.79889134 494.61767578 553.31738281 C490.90845402 554.06351528 487.20024076 554.814491 483.4921875 555.56640625 C481.76686295 555.91183975 481.76686295 555.91183975 480.00668335 556.26425171 C478.92601593 556.48432892 477.84534851 556.70440613 476.73193359 556.93115234 C475.3129628 557.21761124 475.3129628 557.21761124 473.86532593 557.50985718 C471.01044185 558.14264788 471.01044185 558.14264788 467.97891235 559.21990967 C464.95213555 560.214503 462.10120079 560.49566546 458.94287109 560.80072021 C452.20146952 561.66967937 445.55177319 563.26460018 438.90625 564.67578125 C437.19135942 565.03700005 435.47641777 565.39797651 433.76142883 565.75872803 C429.15978659 566.72844485 424.55957024 567.70476098 419.95981216 568.6833725 C417.08355604 569.29513695 414.20701009 569.90552324 411.33041382 570.51568604 C376.15068804 577.98322576 341.08841752 585.87833732 306.09375 594.16796875 C303.72283591 594.72809887 301.35190511 595.2881583 298.98095703 595.84814453 C277.20932023 600.99602947 255.45183102 606.18693735 233.82958984 611.93530273 C232.13697021 612.38305054 232.13697021 612.38305054 230.41015625 612.83984375 C228.96298218 613.2280127 228.96298218 613.2280127 227.48657227 613.62402344 C225.09375 614.16796875 225.09375 614.16796875 222.09375 614.16796875 C221.76375 614.82796875 221.43375 615.48796875 221.09375 616.16796875 C219.20389117 616.42704413 217.31201768 616.67597502 215.41439819 616.87020874 C211.44947396 617.37894414 207.65046843 618.47804335 203.80078125 619.53125 C202.93289474 619.76450485 202.06500824 619.9977597 201.17082214 620.23808289 C199.34228342 620.73065522 197.51443602 621.22580044 195.68725586 621.72338867 C192.9330329 622.47317758 190.17672103 623.21482422 187.41992188 623.95507812 C178.76329697 626.28934238 170.14394935 628.68490363 161.59643555 631.39526367 C159.43654443 632.06213084 157.28576273 632.62109082 155.09375 633.16796875 C153.70848257 633.55124607 152.3249402 633.94079449 150.94287109 634.33544922 C150.13457855 634.56593964 149.32628601 634.79643005 148.49349976 635.03390503 C147.19347519 635.40577438 147.19347519 635.40577438 145.8671875 635.78515625 C144.96433014 636.04297882 144.06147278 636.30080139 143.1312561 636.56643677 C141.21973543 637.11248837 139.30830992 637.65887317 137.39697266 638.20556641 C134.5006049 639.033859 131.60384153 639.86075656 128.70703125 640.6875 C126.84372582 641.21996749 124.98044384 641.75251702 123.1171875 642.28515625 C121.83538101 642.65095291 121.83538101 642.65095291 120.52767944 643.0241394 C115.47238332 644.4712617 110.43172847 645.9611357 105.39732361 647.47927856 C103.44785249 648.06210415 101.49246129 648.62507168 99.53588867 649.18359375 C92.70289912 651.13767658 85.91720987 653.25237691 79.12280273 655.3359375 C77.3068565 655.89212917 75.49044654 656.44680894 73.67358398 657 C71.03784468 657.80258464 68.40355094 658.60976091 65.76953125 659.41796875 C64.95905838 659.66385742 64.14858551 659.90974609 63.31355286 660.16308594 C62.5556395 660.39672852 61.79772614 660.63037109 61.0168457 660.87109375 C60.35401077 661.07379883 59.69117584 661.27650391 59.008255 661.48535156 C56.93875008 662.223234 55.05140328 663.17468891 53.09375 664.16796875 C51.56245647 664.62127586 50.01891335 665.03411878 48.46875 665.41796875 C42.33708325 667.02545976 36.36741304 669.03795645 30.37646484 671.09863281 C26.62218088 672.37811239 22.99821613 673.4323447 19.09375 674.16796875 C17.44139292 674.89500586 15.78945519 675.62303588 14.14111328 676.35913086 C11.85851831 677.26090013 9.5883653 677.87484154 7.2109375 678.484375 C0.49027687 680.28190361 -6.07062371 682.4951482 -12.65625 684.73046875 C-26.22819982 689.32119932 -26.22819982 689.32119932 -32.90625 691.16796875 C-35.53688373 691.96255399 -38.15915584 692.78320039 -40.78125 693.60546875 C-41.76544922 693.91194336 -41.76544922 693.91194336 -42.76953125 694.22460938 C-46.232427 695.30802997 -49.68328389 696.42107722 -53.12353516 697.57446289 C-57.59527389 699.06802397 -62.07671441 700.52972776 -66.5625 701.98046875 C-67.34967407 702.23546143 -68.13684814 702.4904541 -68.94787598 702.75317383 C-72.2695924 703.82917874 -75.59159569 704.9042968 -78.91357422 705.97949219 C-81.35915022 706.77117365 -83.80457772 707.56331261 -86.25 708.35546875 C-87.35196716 708.71185425 -87.35196716 708.71185425 -88.47619629 709.07543945 C-95.3468284 711.30116459 -102.21177762 713.54468272 -109.01953125 715.95703125 C-109.87482422 716.25867187 -110.73011719 716.5603125 -111.61132812 716.87109375 C-113.36942588 717.49268337 -115.12723238 718.1150973 -116.88476562 718.73828125 C-117.73361328 719.03734375 -118.58246094 719.33640625 -119.45703125 719.64453125 C-120.21669189 719.91346191 -120.97635254 720.18239258 -121.7590332 720.45947266 C-123.90625 721.16796875 -123.90625 721.16796875 -126.05932617 721.63818359 C-128.13294103 722.07150829 -128.13294103 722.07150829 -129.90625 724.16796875 C-131.22625 724.16796875 -132.54625 724.16796875 -133.90625 724.16796875 C-135.82988749 724.68386495 -137.73564299 725.26800272 -139.62670898 725.89282227 C-140.7798912 726.27064346 -141.93307343 726.64846466 -143.12120056 727.03773499 C-144.36897781 727.45325119 -145.61675507 727.8687674 -146.90234375 728.296875 C-148.21378691 728.7290169 -149.52540008 729.16064314 -150.83717346 729.59178162 C-154.30457864 730.73299497 -157.76957389 731.88136266 -161.23413086 733.03118896 C-164.6787265 734.17297615 -168.12560356 735.30782882 -171.57226562 736.44335938 C-181.49333025 739.71429047 -191.41104965 742.99522584 -201.31689453 746.31201172 C-202.27821793 746.63370834 -203.23954132 746.95540497 -204.22999573 747.28684998 C-205.96418171 747.86789182 -207.69790169 748.45032758 -209.43101501 749.03456116 C-213.89469887 750.53138954 -218.37437256 751.88789552 -222.90625 753.16796875 C-225.29236197 753.91664761 -227.67506994 754.67624124 -230.0546875 755.4453125 C-231.03992905 755.7633358 -231.03992905 755.7633358 -232.04507446 756.08778381 C-233.42508456 756.53347586 -234.80491442 756.97972637 -236.18457031 757.42651367 C-238.26848266 758.10133438 -240.35293834 758.77445368 -242.4375 759.44726562 C-249.2714189 761.65484777 -256.09926815 763.87845811 -262.90625 766.16796875 C-288.00499541 774.58899176 -288.00499541 774.58899176 -297.02734375 777.28125 C-300.03724716 778.20831659 -303.01898011 779.20931833 -306.00463867 780.21118164 C-309.71200118 781.43365986 -313.43201252 782.61456948 -317.15234375 783.796875 C-319.43561599 784.5254899 -321.71868807 785.2547289 -324.00170898 785.98413086 C-325.57496606 786.48548048 -327.14887133 786.98480019 -328.72338867 787.48217773 C-331.01405817 788.2064074 -333.3021264 788.93838177 -335.58984375 789.671875 C-336.29499619 789.89275284 -337.00014862 790.11363068 -337.72666931 790.34120178 C-341.68154878 791.61499334 -341.68154878 791.61499334 -344.90625 794.16796875 C-344.90625 793.50796875 -344.90625 792.84796875 -344.90625 792.16796875 C-345.70397324 792.43867691 -346.50169647 792.70938507 -347.32359314 792.98829651 C-369.4221921 800.46788404 -391.63433992 807.51216297 -413.94429016 814.33312988 C-417.38195286 815.38485607 -420.81866671 816.43966547 -424.25541496 817.49437523 C-446.81635079 824.41739917 -469.39976254 831.26206384 -492.01464844 838.00683594 C-498.44046473 839.92378963 -504.86372669 841.84837225 -511.28125 843.79296875 C-512.8904834 844.2725 -512.8904834 844.2725 -514.53222656 844.76171875 C-515.48838867 845.05304687 -516.44455078 845.344375 -517.4296875 845.64453125 C-518.25388184 845.89283691 -519.07807617 846.14114258 -519.92724609 846.39697266 C-522.09519505 847.08879189 -522.09519505 847.08879189 -523.90625 849.16796875 C-523.90625 848.50796875 -523.90625 847.84796875 -523.90625 847.16796875 C-524.5146875 847.4103125 -525.123125 847.65265625 -525.75 847.90234375 C-531.80054516 850.21578749 -537.84271544 851.95983474 -544.13867188 853.47143555 C-549.94886088 854.88645098 -555.67403623 856.52900993 -561.40625 858.23046875 C-572.72259728 861.57866698 -584.08868267 864.73199289 -595.46875 867.85546875 C-596.32033691 868.08944366 -597.17192383 868.32341858 -598.04931641 868.56448364 C-618.20122973 874.09853821 -638.40011839 879.44442858 -658.65362549 884.59460449 C-660.17772027 884.98253487 -661.70159972 885.37131201 -663.22528076 885.76086426 C-722.76071684 900.98151442 -722.76071684 900.98151442 -739.90625 895.16796875 C-742.8997106 893.34031836 -745.30936628 891.36173618 -746.90625 888.16796875 C-748.25345257 875.23482404 -739.04282218 864.97485092 -731.40625 855.54296875 C-726.11798265 849.17546316 -720.76696217 843.01380471 -714.90625 837.16796875 C-713.90208576 836.15951668 -712.89844558 835.15054256 -711.89526367 834.14111328 C-708.93448096 831.1624473 -705.97058346 828.18690178 -703.00561523 825.21240234 C-701.73550338 823.93726259 -700.46629061 822.66122664 -699.19799805 821.38427734 C-686.69884228 808.8023242 -686.69884228 808.8023242 -680.4699707 803.51123047 C-678.33164283 801.67437177 -676.36825107 799.69033908 -674.40625 797.66796875 C-671.75458457 794.93471362 -669.01916606 792.36902851 -666.14453125 789.875 C-661.85013113 786.14852055 -657.71645935 782.2699317 -653.59375 778.35546875 C-647.8227471 772.89677004 -642.0161484 767.49114282 -636.10546875 762.18359375 C-634.66414466 760.86259334 -633.25091472 759.51011779 -631.87109375 758.125 C-629.27932111 755.54353262 -626.50059073 753.2148725 -623.7109375 750.8515625 C-621.69501903 749.10030834 -621.69501903 749.10030834 -619.90625 746.16796875 C-618.49648145 745.26168897 -617.08608756 744.35636059 -615.671875 743.45703125 C-612.79368383 741.35569699 -610.43068917 738.76539975 -607.94921875 736.21875 C-606.13816796 734.40077358 -604.29120656 732.71161374 -602.34375 731.04296875 C-597.61991614 726.98065798 -593.10230885 722.70427125 -588.55883789 718.44311523 C-584.06107286 714.23036825 -579.50693076 710.09281467 -574.91015625 705.98828125 C-573.30487573 704.53007321 -571.75225843 703.01397718 -570.21875 701.48046875 C-567.78526912 699.04698787 -565.22059858 696.85595289 -562.59375 694.63671875 C-561.14311804 693.37413167 -559.76611382 692.02783257 -558.40625 690.66796875 C-555.38514536 687.64686411 -552.16367642 684.92838578 -548.90625 682.16796875 C-547.52812652 680.98409506 -546.15316641 679.79652989 -544.78125 678.60546875 C-544.15992188 678.06792969 -543.53859375 677.53039063 -542.8984375 676.9765625 C-541.44948159 675.66113782 -540.04005189 674.30177064 -538.65625 672.91796875 C-535.18433281 669.44605156 -531.61155489 666.08999764 -528.03125 662.73046875 C-527.28311035 662.02744629 -526.5349707 661.32442383 -525.76416016 660.60009766 C-517.88494897 653.20033139 -509.98024484 645.8279746 -502.07226562 638.45898438 C-497.68018441 634.36562069 -493.29166324 630.26847527 -488.90625 626.16796875 C-488.1961377 625.50442383 -487.48602539 624.84087891 -486.75439453 624.15722656 C-479.02384649 616.92844126 -471.34788938 609.67915579 -463.9140625 602.14453125 C-461.36861435 599.63870097 -458.67538819 597.42191844 -455.90625 595.16796875 C-453.10770762 592.50935349 -450.55179572 589.7611749 -448.09375 586.79296875 C-445.29756853 583.48056917 -442.20778012 580.72126191 -438.91015625 577.91796875 C-436.98658286 576.23812298 -435.19311504 574.49146656 -433.40625 572.66796875 C-431.08356085 570.29817845 -428.69379326 568.08163007 -426.17211914 565.92553711 C-421.9960381 562.29286245 -418.05899508 558.46553383 -414.15234375 554.546875 C-413.44779556 553.84328354 -412.74324738 553.13969208 -412.01734924 552.41477966 C-410.53971633 550.93782227 -409.06332543 549.45962133 -407.58813477 547.98022461 C-405.34958519 545.7363179 -403.10574527 543.49780171 -400.86132812 541.25976562 C-399.41634596 539.81412257 -397.97167408 538.3681693 -396.52734375 536.921875 C-395.86673447 536.26328995 -395.20612518 535.6047049 -394.52549744 534.92616272 C-391.38782563 531.77289907 -388.35386367 528.57726484 -385.44726562 525.20898438 C-381.6943306 520.86633959 -377.69173084 516.80931273 -373.62890625 512.7578125 C-372.85872665 511.98667618 -372.08854706 511.21553986 -371.29502869 510.42103577 C-369.67683627 508.80216722 -368.05739788 507.18454324 -366.43676758 505.56811523 C-363.97557768 503.11228157 -361.51977191 500.6511551 -359.06445312 498.18945312 C-357.48209133 496.60775222 -355.89941933 495.02636158 -354.31640625 493.4453125 C-353.59219986 492.71908188 -352.86799347 491.99285126 -352.12184143 491.24461365 C-348.1023023 487.24323845 -343.99281647 483.40714961 -339.69055176 479.71072388 C-336.84174183 477.24756646 -334.0975036 474.67375168 -331.34375 472.10546875 C-326.94589672 468.02156664 -322.48461814 464.04962869 -317.90625 460.16796875 C-316.90498338 459.16923698 -315.90491042 458.16930654 -314.90625 457.16796875 C-312.73605676 455.36980864 -310.53658445 453.62911604 -308.26171875 451.96484375 C-303.83967268 448.72511315 -299.63600812 445.28745894 -295.46875 441.73046875 C-289.02212488 436.22989118 -282.40962841 431.01720243 -275.59375 425.98046875 C-273.53373173 424.44658481 -271.72652233 422.98824108 -269.90625 421.16796875 C-267.44474197 418.70646072 -264.72896921 416.75929818 -261.90625 414.73046875 C-259.72257023 413.02446893 -257.86309827 411.12852317 -255.90625 409.16796875 C-254.25430767 407.79587849 -252.58629352 406.44300339 -250.90625 405.10546875 C-246.17819954 401.27379101 -241.66034371 397.27783537 -237.20410156 393.13476562 C-233.6341936 389.81665736 -229.98194646 386.62317171 -226.234375 383.5078125 C-224.6715853 382.24565964 -224.6715853 382.24565964 -224.90625 380.16796875 C-224.18050781 379.93464844 -223.45476563 379.70132813 -222.70703125 379.4609375 C-219.40798494 377.93794681 -217.58848854 376.11223655 -215.09375 373.48046875 C-212.09997306 370.3892612 -209.11958177 367.39647741 -205.84375 364.60546875 C-200.43480506 359.96765649 -194.87174972 355.11621834 -190.90625 349.16796875 C-188.9107753 347.8278723 -186.91022944 346.49531353 -184.90625 345.16796875 C-183.17457508 343.60520696 -181.48611177 341.99355938 -179.83813477 340.34277344 C-179.13679916 339.64428535 -179.13679916 339.64428535 -178.42129517 338.9316864 C-176.89183342 337.4058994 -175.36964525 335.87308204 -173.84765625 334.33984375 C-172.77477491 333.26576797 -171.70152107 332.19206417 -170.62791443 331.11871338 C-168.38318641 328.87242584 -166.14184149 326.62283551 -163.90307617 324.37060547 C-161.05273814 321.50333012 -158.19591467 318.64262864 -155.33671665 315.78419113 C-153.12033624 313.56753685 -150.90658658 311.34827063 -148.6936779 309.12815094 C-147.64223638 308.07355676 -146.59021415 307.0195412 -145.53756905 305.96614838 C-140.2916413 300.71241365 -135.11571713 295.43793372 -130.30039978 289.78106689 C-128.28815023 287.45279768 -126.11007025 285.31379373 -123.90625 283.16796875 C-120.1901504 279.49718744 -116.66929155 275.73615211 -113.28125 271.76171875 C-112.20775314 270.5174383 -111.06828041 269.32999916 -109.90625 268.16796875 C-109.638125 267.56984375 -109.37 266.97171875 -109.09375 266.35546875 C-107.8382473 264.04270061 -106.3069133 262.49241909 -104.43359375 260.66796875 C-90.96887862 247.4443099 -75.41704764 227.16702079 -74.59375 207.60546875 C-74.7646385 201.76510288 -76.41348262 197.69627821 -80.53125 193.48046875 C-93.92822903 183.53867166 -112.85175845 183.07073598 -128.9296875 182.9296875 C-129.88069839 182.92007492 -130.83170929 182.91046234 -131.8115387 182.90055847 C-134.96814633 182.87560299 -138.12455434 182.86320163 -141.28125 182.85546875 C-142.38340851 182.85218567 -143.48556702 182.84890259 -144.62112427 182.84552002 C-165.41126085 182.82594553 -186.09899856 183.78695453 -206.84375 185.04296875 C-207.5660656 185.0866647 -208.2883812 185.13036064 -209.03258514 185.17538071 C-228.00389565 186.32866174 -246.96551652 187.63302937 -265.92538452 188.9597168 C-268.5065505 189.14004458 -271.08782133 189.31868837 -273.66918945 189.49609375 C-277.14441781 189.73595946 -280.6191415 189.98181911 -284.09375 190.23046875 C-285.23392578 190.30845703 -286.37410156 190.38644531 -287.54882812 190.46679688 C-288.62970703 190.54478516 -289.71058594 190.62277344 -290.82421875 190.703125 C-292.22837036 190.80185913 -292.22837036 190.80185913 -293.66088867 190.90258789 C-295.93930353 191.04318714 -295.93930353 191.04318714 -297.90625 192.16796875 C-299.84592856 192.21905477 -301.78725698 192.21284221 -303.72729492 192.17797852 C-310.44818096 192.12871403 -317.07129208 192.48990316 -323.76953125 193.0078125 C-325.56503166 193.14146461 -325.56503166 193.14146461 -327.39680481 193.27781677 C-340.32285797 194.25129403 -353.24183931 195.31503607 -366.15893555 196.40014648 C-369.48872907 196.67967807 -372.81867352 196.95724524 -376.14872265 197.23370457 C-379.39482746 197.50349284 -382.64076744 197.77524711 -385.88671875 198.046875 C-387.65392525 198.19377525 -387.65392525 198.19377525 -389.45683289 198.34364319 C-392.6075288 198.60920097 -395.75691827 198.88676496 -398.90625 199.16796875 C-399.80928864 199.24111298 -400.71232727 199.3142572 -401.64273071 199.38961792 C-406.2487809 199.64100725 -406.2487809 199.64100725 -409.90625 202.16796875 C-409.90625 201.50796875 -409.90625 200.84796875 -409.90625 200.16796875 C-438.88600156 203.6764952 -467.57959768 207.82363931 -496.09350586 214.18334961 C-497.87108819 214.57787789 -499.64867102 214.97240395 -501.42625427 215.3669281 C-502.8169 215.6761662 -502.8169 215.6761662 -504.23563957 215.99165154 C-509.22465829 217.10023405 -514.21499525 218.20286012 -519.20507812 219.30664062 C-525.51834823 220.70353895 -531.83123736 222.10209682 -538.14282227 223.5065918 C-543.27558144 224.64860247 -548.40958334 225.78487449 -553.54440498 226.91757393 C-555.48013005 227.34564156 -557.41541371 227.7757112 -559.35020256 228.20799065 C-569.85266371 230.55343389 -580.32659946 232.68593859 -590.97728634 234.24774837 C-594.0683471 234.70183102 -596.9348003 235.17748552 -599.90625 236.16796875 C-604.61070848 236.40692665 -609.32138582 236.35316451 -614.03125 236.35546875 C-615.32546875 236.36771484 -616.6196875 236.37996094 -617.953125 236.39257812 C-624.93511582 236.40324308 -631.16904522 236.03286241 -637.90625 234.16796875 C-637.90625 233.50796875 -637.90625 232.84796875 -637.90625 232.16796875 C-638.504375 231.92046875 -639.1025 231.67296875 -639.71875 231.41796875 C-642.22251919 229.9872435 -643.38697388 228.59881055 -644.90625 226.16796875 C-644.90625 225.50796875 -644.90625 224.84796875 -644.90625 224.16796875 C-645.56625 223.83796875 -646.22625 223.50796875 -646.90625 223.16796875 C-645.00164014 194.72269798 -639.32041245 170.3959675 -625.90625 145.16796875 C-624.53080112 142.57466925 -623.15553833 139.98128004 -621.7824707 137.38671875 C-620.87870546 135.68340103 -619.96984127 133.98277708 -619.05541992 132.28515625 C-618.44017456 131.13273437 -618.44017456 131.13273437 -617.8125 129.95703125 C-617.44447266 129.27334473 -617.07644531 128.5896582 -616.69726562 127.88525391 C-615.76679326 126.18032777 -615.76679326 126.18032777 -615.90625 124.16796875 C-614.91165626 123.16259156 -613.91070163 122.16349721 -612.90625 121.16796875 C-611.01859961 118.14299565 -609.42309179 114.95699702 -607.78125 111.79296875 C-607.29696533 110.86339355 -606.81268066 109.93381836 -606.3137207 108.97607422 C-600.60086677 97.84626242 -595.71810648 86.37033327 -591.15625 74.7265625 C-590.88917236 74.0464209 -590.62209473 73.3662793 -590.34692383 72.66552734 C-589.6519376 70.87996467 -588.97176583 69.08865469 -588.29296875 67.296875 C-581.60420129 52.20475462 -567.91225518 41.86291043 -552.91015625 35.91064453 C-517.29257116 22.7102676 -477.18151549 21.58952094 -439.65625 19.04296875 C-437.91257141 18.92236084 -437.91257141 18.92236084 -436.13366699 18.79931641 C-402.23172459 16.48078543 -368.2517867 15.45354437 -334.29635811 14.2410717 C-282.39789294 12.38732777 -230.52294423 10.16489741 -178.64947319 7.71994352 C-176.24089912 7.60651186 -173.83231267 7.4933473 -171.42372131 7.38028336 C-137.00969919 5.76468585 -102.59905743 4.11930023 -68.20320129 2.14756775 C-45.47302468 0.8550822 -22.76822757 0.00866214 0 0 Z " fill="#D80301" transform="translate(2113.90625,2041.83203125)"/>
<path d="M0 0 C3.8498358 1.46947665 6.86066842 3.17894834 10.1875 5.625 C13.29106099 8.18715725 13.29106099 8.18715725 17 9 C18.15356439 10.1897463 19.30647694 11.38013169 20.45605469 12.57373047 C23.33955007 15.2374528 26.75330173 17.08292793 30.125 19.0625 C31.75737791 20.03891577 33.38886191 21.01682724 35.01953125 21.99609375 C35.85178223 22.4947998 36.6840332 22.99350586 37.54150391 23.50732422 C40.5847947 25.35505808 43.5820213 27.26868321 46.578125 29.19165039 C58.4896087 36.83285677 70.70958799 43.93777022 82.93965149 51.05162048 C86.38343726 53.05526845 89.82085295 55.06906075 93.25 57.09765625 C94.00587402 57.5447998 94.76174805 57.99194336 95.54052734 58.45263672 C96.84889991 59.22773023 98.15661865 60.00392959 99.46337891 60.78173828 C108.46019476 66.10109631 117.7256501 70.93692254 127 75.75 C138.6992184 81.83108706 138.6992184 81.83108706 143.44921875 84.3671875 C167.04681326 96.95639359 191.01489321 108.95413438 215.44067383 119.85351562 C219.13807089 121.50981407 222.82021332 123.19929088 226.50292969 124.88793945 C229.66876468 126.29783175 232.88169118 127.56047462 236.109375 128.8203125 C238.4540864 129.77720823 240.76580222 130.77357381 243.078125 131.8046875 C243.79653564 132.12453613 244.51494629 132.44438477 245.25512695 132.77392578 C246.69069121 133.41598707 248.12419683 134.06267464 249.55541992 134.71435547 C252.53868114 136.04727876 254.69404843 137 258 137 C258 137.66 258 138.32 258 139 C258.70125 139.17015625 259.4025 139.3403125 260.125 139.515625 C261.07375 139.75796875 262.0225 140.0003125 263 140.25 C263.928125 140.48203125 264.85625 140.7140625 265.8125 140.953125 C268.33270954 141.78084088 270.34720949 142.64496775 272.66894531 143.86230469 C276.84244545 145.97525973 281.09152274 147.6535569 285.484375 149.25 C286.28493317 149.54469681 287.08549133 149.83939362 287.91030884 150.14302063 C290.52137733 151.10138687 293.13531146 152.05155786 295.75 153 C296.65437805 153.32914398 297.5587561 153.65828796 298.49053955 153.99740601 C338.5335603 168.55431069 379.28663444 182.04788575 421 191 C422.15612793 191.25088379 423.31225586 191.50176758 424.50341797 191.76025391 C467.15770834 200.94794303 510.43182261 206.73940273 553.6171875 212.80859375 C559.64253964 213.65604749 565.65907911 214.54786527 571.67138672 215.48413086 C577.74474924 216.42538178 583.82343901 217.33080604 589.90283203 218.23217773 C591.38804155 218.45295212 592.87306768 218.67496371 594.35791016 218.89819336 C602.058403 220.05538048 609.72269532 221.20115745 617.50341797 221.67163086 C620.78183571 222.10283288 623.82694569 223.07678125 627 224 C629.18945891 224.45005361 631.38529757 224.86997591 633.5859375 225.26171875 C634.8349585 225.49012451 636.08397949 225.71853027 637.37084961 225.95385742 C638.02423309 226.07312592 638.67761658 226.19239441 639.35079956 226.3152771 C659.4197661 230.0056868 680.31097965 234.02276036 698.4375 243.75 C699.08420654 244.09417969 699.73091309 244.43835937 700.3972168 244.79296875 C705.09500856 247.35636093 709.28413824 250.2691313 713.36328125 253.75 C714.92166928 255.20231906 714.92166928 255.20231906 717 255 C718.0306793 256.64787074 719.02320016 258.31963104 720 260 C721.16187982 261.50784404 722.32517156 263.01485471 723.5144043 264.5012207 C754.57422199 303.35374045 760.21891652 361.52382982 760.25 409.375 C760.25101212 410.78729385 760.25101212 410.78729385 760.25204468 412.2281189 C760.22186512 438.95451214 757.27977868 464.92410547 752.41137695 491.1862793 C752.02310311 493.84198023 751.9701955 496.32251456 752 499 C751.4140625 501.0703125 751.4140625 501.0703125 750.625 503.125 C749.44875677 506.44135243 748.6685117 509.58716076 748.125 513.0625 C747.11787291 519.07169162 745.30100636 524.74304826 743.4140625 530.51953125 C742.23631049 534.15684569 741.20255265 537.82517452 740.17578125 541.5078125 C738.11620374 548.76622478 735.7464472 555.88873136 733.27319336 563.01391602 C732.56230445 565.06306367 731.85789774 567.11435557 731.15429688 569.16601562 C726.58547536 582.43590963 721.47025518 595.46109886 716.125 608.4375 C715.63386719 609.64470703 715.14273438 610.85191406 714.63671875 612.09570312 C711.56858202 619.54290774 708.21705388 626.74949535 704.56640625 633.92163086 C702.77769163 637.43689 701.09259385 640.98268549 699.4375 644.5625 C699.00836304 645.48627441 699.00836304 645.48627441 698.57055664 646.42871094 C697.17844889 649.4292285 695.80240707 652.43618639 694.4375 655.44921875 C691.56499874 661.77021762 688.507595 667.85792636 685.00390625 673.85546875 C684.67261719 674.56316406 684.34132813 675.27085937 684 676 C684.33 676.66 684.66 677.32 685 678 C684.25492188 678.66902344 683.50984375 679.33804688 682.7421875 680.02734375 C679.6333207 683.14168005 677.95819179 686.60462283 676.125 690.5625 C673.15615541 696.74463211 669.97797069 702.66458834 666.4453125 708.546875 C665.6311829 709.92869497 664.83906638 711.32601804 664.12915039 712.76416016 C662.6762664 715.64102752 661.08187072 718.4251848 659.48828125 721.2265625 C658.80620506 722.43465002 658.12457742 723.64299088 657.44335938 724.8515625 C656.37407342 726.74779913 655.30249255 728.64253378 654.22338867 730.53320312 C653.17925538 732.3644013 652.14539281 734.20106858 651.11328125 736.0390625 C650.18189331 737.68189209 650.18189331 737.68189209 649.23168945 739.35791016 C648.82523193 740.2297998 648.41877441 741.10168945 648 742 C648.33 742.66 648.66 743.32 649 744 C648.3090625 744.59296875 647.618125 745.1859375 646.90625 745.796875 C642.78242389 749.92650932 640.27936338 755.17492116 637.5 760.25 C636.94441406 761.24902344 636.38882813 762.24804688 635.81640625 763.27734375 C633.77873159 766.94515815 631.75294054 770.61926748 629.74414062 774.30297852 C625.57602125 781.90118455 621.03714541 789.27507432 616.52734375 796.67382812 C613.12287879 802.30323129 609.91330948 807.92987876 607.0925293 813.87573242 C605.3943719 817.17755756 603.20636106 820.018431 601 823 C600.71125 823.58652344 600.4225 824.17304688 600.125 824.77734375 C598.54597898 827.89700681 596.60268954 830.76799418 594.6875 833.6875 C592.11233118 837.64379351 589.60318694 841.58425919 587.375 845.75 C585.10366781 849.98508815 582.36277282 853.80632847 579.5703125 857.7109375 C577.75393532 860.3586913 576.35289387 863.09127818 575 866 C573.52557328 868.6283259 572.05570405 870.93315514 570.125 873.25 C568.34681376 875.55118219 567.05110247 877.643599 565.6875 880.1875 C563.39996459 884.41492105 560.76634237 888.26058223 557.98046875 892.171875 C555.61168773 895.55451298 553.32146951 898.98084874 551.0625 902.4375 C550.66063477 903.04102295 550.25876953 903.6445459 549.84472656 904.26635742 C547.51253019 907.829144 547.51253019 907.829144 547 912 C545.8634839 913.10207622 544.72309025 914.20036011 543.56640625 915.28125 C539.55275381 919.68525766 536.60572746 925.18293428 533.6640625 930.34375 C532.29790022 932.52447851 530.88266955 934.51041154 529.32421875 936.55078125 C525.23862566 941.92882022 521.54250646 947.55983126 517.8125 953.1875 C517.10158203 954.25419922 516.39066406 955.32089844 515.65820312 956.41992188 C511.94906571 961.97396009 511.94906571 961.97396009 508.4206543 967.64282227 C506.49447879 970.83877081 504.23966431 973.7711556 502 976.75 C497.36909934 982.97629058 493.09913168 989.37522964 488.93139648 995.91821289 C485.67415529 1001.0135653 482.24793909 1005.91507499 478.64453125 1010.7734375 C476.66123366 1013.45866227 474.82138241 1016.20287702 473 1019 C470.12773133 1023.37142045 467.14419414 1027.65406334 464.12792969 1031.92724609 C459.37402932 1038.66428241 454.64963815 1045.39998854 450.25 1052.375 C447.3690452 1056.93253254 444.36182403 1061.33433725 441.1875 1065.6875 C436.66283286 1071.90847441 432.55035902 1078.35012898 428.47924805 1084.87475586 C424.86175671 1090.66613322 421.13943614 1096.37279257 417.296875 1102.01733398 C415.06001502 1105.32330962 413.01303153 1108.68867597 411.05908203 1112.16845703 C409.50697507 1114.85262172 407.82122532 1117.44524028 406.14257812 1120.05151367 C400.51849157 1128.79055152 395.1931049 1137.68709245 390 1146.6875 C389.36537842 1147.78553955 388.73075684 1148.8835791 388.0769043 1150.01489258 C385.20571341 1155.01942856 382.42242796 1160.02775803 379.89526367 1165.21459961 C378.39022498 1168.21605801 376.67812326 1171.09213219 375 1174 C373.37172623 1177.01482443 371.76221916 1180.03826577 370.16040039 1183.06713867 C368.43344399 1186.32649308 366.69021653 1189.57304539 364.890625 1192.79296875 C364.56167236 1193.3864209 364.23271973 1193.97987305 363.89379883 1194.59130859 C362.9852439 1196.22656829 362.0690029 1197.85755063 361.15234375 1199.48828125 C360.77207031 1200.31714844 360.39179687 1201.14601563 360 1202 C360.33 1202.66 360.66 1203.32 361 1204 C360.34 1204 359.68 1204 359 1204 C358.84144531 1204.556875 358.68289063 1205.11375 358.51953125 1205.6875 C357.28314357 1209.73137572 355.97978831 1213.28403172 353.625 1216.8125 C350.95751048 1220.84935358 349.24212633 1225.05442239 347.4453125 1229.53515625 C345.77274173 1233.54480562 343.93311402 1237.45492772 342.0625 1241.375 C337.25231094 1251.49951751 332.64459799 1261.67171452 329.0546875 1272.3046875 C328.1743908 1274.55433462 327.20503989 1276.61326449 326.10546875 1278.7578125 C323.91336143 1283.06612314 322.1521428 1287.48413176 320.4375 1292 C320.14681641 1292.75539063 319.85613281 1293.51078125 319.55664062 1294.2890625 C318.42502545 1297.23581879 317.30096552 1300.1847498 316.20776367 1303.14599609 C314.7646659 1307.05432813 313.2128511 1310.85168325 311.4375 1314.625 C309.70904736 1318.37512492 308.25629139 1322.06362031 307 1326 C306.41402563 1327.51057802 305.81623899 1329.01659345 305.2109375 1330.51953125 C304.85153076 1331.41309326 304.49212402 1332.30665527 304.12182617 1333.22729492 C303.06771837 1335.8326273 302.00908315 1338.43606773 300.94921875 1341.0390625 C290.7160267 1366.24760186 280.73246485 1391.70254454 272.43310547 1417.62133789 C271.14870727 1421.62944056 269.80243031 1425.54915054 268.1796875 1429.43359375 C265.22824656 1436.67230898 262.97042741 1444.15336169 260.6262207 1451.60522461 C259.81041213 1454.19412567 258.98464109 1456.7797096 258.15820312 1459.36523438 C257.63220826 1461.02845486 257.10679718 1462.69186011 256.58203125 1464.35546875 C256.3372554 1465.11917282 256.09247955 1465.88287689 255.84028625 1466.66972351 C254.45401574 1471.11031657 253.62308622 1475.3766645 253 1480 C252.27782859 1481.66422182 251.55342831 1483.32772681 250.79785156 1484.97705078 C249.09331765 1489.2988892 248.3037566 1493.89885923 247.375 1498.4375 C247.15481201 1499.49412842 246.93462402 1500.55075684 246.70776367 1501.6394043 C245.20961603 1509.14268887 244.39000922 1516.40848313 244.23828125 1524.05078125 C244 1527 244 1527 242 1530 C233.14262334 1530 226.48747963 1523.55832346 220.375 1517.6875 C215.95898932 1513.04072391 211.97697569 1508.02182973 208 1503 C207.20464844 1501.99839844 206.40929687 1500.99679687 205.58984375 1499.96484375 C190.54268435 1480.8229131 178.3274388 1460.10003922 166.6875 1438.75 C166.11789551 1437.70779297 165.54829102 1436.66558594 164.96142578 1435.59179688 C164.44177246 1434.62822266 163.92211914 1433.66464844 163.38671875 1432.671875 C162.92483154 1431.8169043 162.46294434 1430.96193359 161.98706055 1430.08105469 C161 1428 161 1428 161 1426 C160.34 1425.67 159.68 1425.34 159 1425 C158.15600586 1423.21142578 158.15600586 1423.21142578 157.27734375 1420.8203125 C154.92709256 1414.70250789 152.19500145 1408.77899679 149.45809937 1402.82800293 C98.85809998 1292.48631347 98.85809998 1292.48631347 118.39624023 1239.20947266 C125.72368684 1220.55103569 137.85830013 1205.90904672 151.69360352 1191.68383789 C152.35287842 1191.00184326 153.01215332 1190.31984863 153.69140625 1189.6171875 C154.28123291 1189.01503418 154.87105957 1188.41288086 155.47875977 1187.79248047 C157.07655431 1186.05466598 157.07655431 1186.05466598 158.03881836 1183.91455078 C159.28389204 1181.4345234 161.17125118 1180.16175508 163.30859375 1178.45703125 C166.57228727 1175.64558164 169.23846002 1172.29323137 172 1169 C172.81082031 1168.04222656 173.62164063 1167.08445312 174.45703125 1166.09765625 C178.72056149 1161.03943483 182.85593253 1155.9242477 186.77734375 1150.59375 C188.35245753 1148.54056654 190.14324482 1146.80048987 192 1145 C194.38475668 1142.37741044 196.69358983 1139.69153307 199 1137 C199.64122803 1136.25411621 199.64122803 1136.25411621 200.29541016 1135.49316406 C201.68209892 1133.87544226 203.06072627 1132.25116451 204.4375 1130.625 C204.88689941 1130.10099609 205.33629883 1129.57699219 205.79931641 1129.03710938 C208.26404929 1126.3834795 208.26404929 1126.3834795 209 1123 C210.65023277 1121.31705991 212.32064207 1119.65387802 214 1118 C215.84005866 1115.84495172 217.57769953 1113.61524163 219.3125 1111.375 C219.78671387 1110.76615967 220.26092773 1110.15731934 220.74951172 1109.5300293 C228.49908238 1100.37687218 228.49908238 1100.37687218 234 1090 C235.32154075 1088.65497747 236.6562409 1087.3228254 238 1086 C239.0781154 1084.50755789 240.11080735 1082.9814995 241.1015625 1081.4296875 C241.952948 1080.09901245 241.952948 1080.09901245 242.8215332 1078.74145508 C243.41667725 1077.7955249 244.01182129 1076.84959473 244.625 1075.875 C245.24528076 1074.89233154 245.86556152 1073.90966309 246.50463867 1072.8972168 C258.45989111 1053.80371648 269.83910041 1033.79267228 276 1012 C276.31839844 1010.89914062 276.63679688 1009.79828125 276.96484375 1008.6640625 C281.40770943 991.09734014 278.70457746 972.57754092 276.77574348 954.82678413 C276.05981694 948.21520236 275.38359211 941.59953942 274.70654297 934.98388672 C274.63548202 934.29219914 274.56442107 933.60051156 274.49120677 932.88786376 C272.82366282 916.62958223 271.40751856 900.35188959 270.03515625 884.06640625 C269.91299222 882.61982951 269.79082462 881.17325308 269.66865349 879.72667694 C268.98430344 871.61488222 268.30636864 863.50256029 267.63132292 855.38998652 C266.98442012 847.61786012 266.33181854 839.84621449 265.67926204 832.07456112 C261.62544538 783.78521317 257.6385875 735.49032584 253.68859863 687.19238281 C250.77616883 651.59681663 247.73412396 616.01236028 244.66226196 580.43023682 C244.2279807 575.39861117 243.79553545 570.36683352 243.36483765 565.3348999 C241.20169391 540.08102009 238.9641349 514.83843467 236.3671875 489.625 C236.26828217 488.65229912 236.16937683 487.67959824 236.06747437 486.67742157 C231.13191869 438.37558814 220.25727484 391.98757076 197.75 348.6875 C197.34982666 347.91672119 196.94965332 347.14594238 196.53735352 346.35180664 C194.32355686 342.18895129 191.91762286 338.34605098 189.12011719 334.55200195 C187.66457614 332.53524642 186.44135163 330.43156597 185.25 328.25 C184.84265625 327.51265625 184.4353125 326.7753125 184.015625 326.015625 C183 324 183 324 182 321 C181.34 321 180.68 321 180 321 C178.7734375 319.3828125 178.7734375 319.3828125 177.375 317.125 C173.91611094 311.7786883 170.04878857 306.90827773 166 302 C164.86872681 300.60793335 164.86872681 300.60793335 163.71459961 299.18774414 C154.42628349 287.94670969 144.01056031 277.81129053 133.65087891 267.57183838 C130.24394506 264.20341301 126.84218614 260.82977853 123.44392395 257.4526062 C121.64588129 255.66665098 119.84517409 253.8833727 118.04130554 252.103302 C113.13925419 247.24021566 108.46910516 242.26307656 104 237 C102.94460737 235.77682843 101.88869747 234.55410277 100.83203125 233.33203125 C99.82509671 232.15921817 98.81858211 230.98604441 97.8125 229.8125 C97.30525391 229.22275391 96.79800781 228.63300781 96.27539062 228.02539062 C94.06268585 225.44533668 91.88404937 222.85490994 89.76171875 220.19921875 C88.03736241 217.96417175 88.03736241 217.96417175 86 216 C85.18686469 214.8270962 84.39925638 213.63642428 83.625 212.4375 C81.61518392 209.37167887 79.55208866 206.36130767 77.39453125 203.3984375 C69.80194732 192.93714494 63.08314448 182.10065497 56.65893555 170.88647461 C55.4745168 168.82563828 54.27653586 166.77257222 53.06958008 164.72485352 C48.23689464 156.48627758 44.05784475 148.04472089 40.1875 139.3125 C39.89074371 138.64802856 39.59398743 137.98355713 39.28823853 137.2989502 C19.80244816 93.65627366 3.22278781 48.1123984 0 0 Z " fill="#D80301" transform="translate(770,1485)"/>
<path d="M0 0 C1.18787109 -0.02900391 2.37574219 -0.05800781 3.59960938 -0.08789062 C8.57917039 -0.12419701 12.24691162 -0.11283588 16.82421875 1.95703125 C21.77469267 6.89113997 22.64609915 11.9440604 22.8125 18.70703125 C22.84439926 19.51921112 22.87629852 20.33139099 22.90916443 21.16818237 C22.97715942 22.91264627 23.03948127 24.65733889 23.09664917 26.40219116 C23.25114873 31.03255915 23.45563247 35.66067399 23.66015625 40.2890625 C23.70084732 41.22266098 23.74153839 42.15625946 23.78346252 43.1181488 C23.68027944 76.78018077 23.68027944 76.78018077 31.1875 108.3125 C31.34930759 109.8744386 31.47001167 111.44072169 31.5703125 113.0078125 C32.17127113 120.18424069 33.608083 127.14244593 35.0625 134.1875 C35.44728516 136.09595703 35.44728516 136.09595703 35.83984375 138.04296875 C38.48035349 151.03321518 41.51074625 163.85347485 45.0625 176.625 C45.41401123 177.89303467 45.76552246 179.16106934 46.12768555 180.4675293 C49.19328715 191.45852369 52.29654779 202.41214659 56.3503418 213.08666992 C57.27682301 215.54999136 58.17023576 218.02408469 59.0625 220.5 C64.3853223 235.13460351 70.44282994 249.2791589 77.1875 263.3125 C77.63351562 264.24304199 78.07953125 265.17358398 78.5390625 266.13232422 C87.90322336 285.54858319 98.67365587 304.13631577 109.625 322.6875 C110.28717529 323.81051514 110.94935059 324.93353027 111.6315918 326.09057617 C114.93952578 331.66163489 118.32117331 337.14585705 121.9699707 342.50073242 C123.01116675 344.05010397 123.98210334 345.64629846 124.9375 347.25 C126.14760553 349.43141988 126.14760553 349.43141988 128.1875 351.3125 C128.47753906 352.04210938 128.76757812 352.77171875 129.06640625 353.5234375 C130.4174737 356.88462969 132.23092765 359.86493954 134.125 362.9375 C137.64864817 368.73412097 141.10546923 374.56429713 144.5 380.4375 C144.95818115 381.22898437 145.4163623 382.02046875 145.88842773 382.8359375 C148.33743211 387.07608059 150.76468911 391.32751753 153.16796875 395.59375 C164.728476 416.08397203 177.31183058 434.97450506 192.81445312 452.71533203 C194.15217385 454.2714076 195.44373795 455.85794996 196.734375 457.453125 C199.06787218 460.1730612 201.41429142 462.42560175 204.1875 464.6875 C205.425 465.72003906 205.425 465.72003906 206.6875 466.7734375 C209.48004803 468.49259988 210.97115649 468.64562129 214.1875 468.3125 C216.25667773 463.18069241 216.51716311 458.73853529 216.46875 453.296875 C216.46435913 452.42593201 216.45996826 451.55498901 216.45544434 450.65765381 C216.30248578 440.53824948 215.01951077 430.58208167 213.6875 420.5625 C213.32660651 417.78386235 212.96941104 415.00483317 212.61755371 412.22503662 C212.40080395 410.51908621 212.17864097 408.81381053 211.9498291 407.10943604 C211.30745199 402.13159507 211.08719217 397.33219056 211.1875 392.3125 C210.5275 391.9825 209.8675 391.6525 209.1875 391.3125 C208.83468628 388.65675354 208.83468628 388.65675354 208.67138672 385.14672852 C208.23934675 377.69871475 207.40472149 370.36109863 206.4453125 362.96484375 C206.27413704 361.61948513 206.10340251 360.27407035 205.93307495 358.92860413 C205.39712106 354.70185651 204.85517448 350.47588922 204.3125 346.25 C201.66573893 325.62822147 199.2024347 305.00792043 197.1875 284.3125 C197.11669975 283.58540455 197.04589951 282.8583091 196.9729538 282.10918045 C196.16996902 273.85156468 195.37500673 265.59317949 194.58226681 257.3345747 C190.83576416 217.66050776 190.83576416 217.66050776 186.375 178.0625 C186.27581268 177.25729919 186.17662537 176.45209839 186.07443237 175.62249756 C185.70144064 172.60108999 185.32735587 169.57982096 184.95143127 166.55877686 C178.48029734 114.314272 178.48029734 114.314272 185.1875 105.3125 C193.63429148 97.68978574 207.42145076 97.32969091 218.25 95.875 C219.01617645 95.77055573 219.78235291 95.66611145 220.57174683 95.5585022 C249.24512287 91.67328159 278.21457186 88.08927132 307.1875 89.3125 C307.84850708 89.33890564 308.50951416 89.36531128 309.19055176 89.39251709 C314.27518813 89.59770102 319.35623014 89.8494843 324.4375 90.125 C325.12894104 90.1596637 325.82038208 90.19432739 326.53277588 90.2300415 C342.71271184 91.07462922 342.71271184 91.07462922 348.9375 96.875 C354.41305336 104.19922365 354.62104732 113.28664374 354.4375 122.0625 C354.42976563 123.56490234 354.42976563 123.56490234 354.421875 125.09765625 C354.34459153 132.39128383 354.34459153 132.39128383 353.76187134 135.80847168 C352.98834369 140.52747943 352.41809132 145.26474988 351.83642578 150.01074219 C351.70454865 151.07866501 351.57267151 152.14658783 351.4367981 153.24687195 C351.00054608 156.78417935 350.56643649 160.32174452 350.1328125 163.859375 C349.98301815 165.08018013 349.8332238 166.30098526 349.67889023 167.55878448 C348.96476636 173.38071149 348.25178693 179.20277664 347.54046834 185.02504706 C346.81064134 190.99842331 346.07777605 196.97140535 345.34033203 202.94384766 C341.95750905 230.34875513 338.58935424 257.71871592 336.43978882 285.25184631 C336.07339404 289.69678177 335.6059703 294.12877687 335.125 298.5625 C333.76205821 311.78274492 332.96950733 325.04727168 332.1875 338.3125 C332.12675293 339.29621582 332.06600586 340.27993164 332.00341797 341.29345703 C329.66059473 380.56197196 328.57944173 422.33477782 334.8125 461.3125 C335.1875 464.3125 335.1875 464.3125 334.1875 466.3125 C334.8475 466.6425 335.5075 466.9725 336.1875 467.3125 C336.4609375 469.48046875 336.4609375 469.48046875 336.5625 472.5 C337.7288474 491.120634 342.56853888 509.4574387 347.75 527.3125 C348.04668579 528.33597534 348.04668579 528.33597534 348.34936523 529.38012695 C349.52669322 533.3471154 350.89032851 537.20453661 352.35319519 541.07711792 C379.97048362 615.07308552 379.97048362 615.07308552 371.2265625 638.28125 C369.30647489 642.03480473 367.01578635 645.19326553 364.1875 648.3125 C363.50300781 649.09560547 363.50300781 649.09560547 362.8046875 649.89453125 C357.40552105 655.25129586 350.03396946 657.6497783 343.12646484 660.49414062 C340.45990888 661.61958706 337.85939654 662.87366738 335.25 664.125 C331.3669249 665.90160813 327.70785744 667.05527021 323.51953125 667.84765625 C319.84993987 668.57911584 316.27089812 669.62549302 312.66796875 670.62890625 C281.86256642 679.11858406 250.44344372 675.21890452 222.1875 660.3125 C217.46470102 657.42860694 213.32572686 653.9831306 209.1875 650.3125 C208.35734375 649.60609375 207.5271875 648.8996875 206.671875 648.171875 C204.1144592 645.94444833 201.64453343 643.65029504 199.1875 641.3125 C198.65511719 640.80734863 198.12273438 640.30219727 197.57421875 639.78173828 C188.93302634 631.52822916 181.29138603 622.91121776 174.1875 613.3125 C173.43218994 612.30775635 173.43218994 612.30775635 172.66162109 611.28271484 C158.41153456 592.29867154 146.61662831 571.87218559 134.87646484 551.27490234 C133.33556183 548.57219677 131.78775907 545.87357585 130.23828125 543.17578125 C129.40826552 541.72169002 128.57878813 540.26729128 127.75 538.8125 C127.37842773 538.16627686 127.00685547 537.52005371 126.62402344 536.85424805 C124.1875 532.54370572 124.1875 532.54370572 124.1875 530.3125 C123.5275 529.9825 122.8675 529.6525 122.1875 529.3125 C121.05544386 527.22614861 120.01687469 525.14238643 119 523 C115.89318393 516.61649245 112.61466113 510.34606894 109.22924805 504.10595703 C93.31611819 474.76880835 78.67059441 444.84047456 65.1875 414.3125 C64.89782349 413.65859283 64.60814697 413.00468567 64.30969238 412.33096313 C60.19367666 403.03230011 56.24012172 393.68213471 52.4375 384.25 C51.89354949 382.90721112 51.34935033 381.56452295 50.80493164 380.22192383 C47.77108739 372.73423727 44.75558564 365.23927065 41.74873352 357.7407074 C26.26473948 310.81353573 26.26473948 310.81353573 0.1875 270.3125 C-1.90833804 269.62626908 -1.90833804 269.62626908 -3.8125 269.3125 C-15.68736453 280.94781395 -19.20595783 298.23085064 -20.8125 314.3125 C-20.83843229 317.37621496 -20.7526628 320.41873138 -20.65234375 323.48046875 C-20.82243677 326.4882111 -21.54685993 328.59757796 -22.8125 331.3125 C-22.1525 331.6425 -21.4925 331.9725 -20.8125 332.3125 C-21.1425 333.3025 -21.4725 334.2925 -21.8125 335.3125 C-23.76137307 372.15369664 -17.55019857 410.32346122 -10.734375 446.4375 C-10.5873262 447.21813246 -10.4402774 447.99876492 -10.28877258 448.8030529 C-6.78679556 467.26244314 -2.43514321 485.49960671 2.04241943 503.74266434 C2.92476637 507.34319649 3.80061596 510.945298 4.67662048 514.54737759 C6.88155784 523.6131594 9.09932578 532.67573912 11.32627869 541.73613644 C12.68251752 547.25409369 14.03439695 552.77309493 15.3828125 558.29296875 C21.4766955 583.22497855 27.66164096 608.12400173 34.6875 632.8125 C34.91985352 633.63283722 35.15220703 634.45317444 35.39160156 635.29837036 C40.5373882 653.36947529 46.53244834 670.80408838 54.8125 687.6875 C68.23309331 715.19500495 68.23309331 715.19500495 68.4375 726.25 C68.46328125 727.08402344 68.4890625 727.91804688 68.515625 728.77734375 C68.08890518 732.07426233 67.25162506 733.68960169 65.1875 736.3125 C62.80063309 737.96379157 60.54824905 739.33499668 58 740.6875 C57.22374268 741.10684814 56.44748535 741.52619629 55.64770508 741.95825195 C17.79825551 762.01770732 -22.75345091 778.67911332 -64.12207031 789.86962891 C-67.02769284 790.67158072 -68.63869889 791.13869889 -70.8125 793.3125 C-70.8125 792.6525 -70.8125 791.9925 -70.8125 791.3125 C-71.36188232 791.45872803 -71.91126465 791.60495605 -72.47729492 791.75561523 C-74.98444736 792.42198648 -77.49221507 793.08601318 -80 793.75 C-81.29647461 794.09514648 -81.29647461 794.09514648 -82.61914062 794.44726562 C-86.66945971 795.51803964 -90.69432682 796.53376538 -94.8125 797.3125 C-96.98060476 797.80622683 -99.14720565 798.30659011 -101.3125 798.8125 C-105.13725502 799.70613435 -108.96146561 800.54229312 -112.8125 801.3125 C-115.71070117 801.94775257 -118.6050583 802.60007839 -121.5 803.25 C-127.1925306 804.52146867 -132.88253306 805.78528218 -138.61328125 806.875 C-140.11784732 807.17430977 -141.6155951 807.50951141 -143.10546875 807.875 C-153.17085601 810.23946291 -164.42702543 811.46426622 -173.609375 805.9609375 C-189.30106827 794.2199897 -193.02738159 773.71961833 -195.72021484 755.41748047 C-197.74292661 739.29579696 -198.06593357 723.07692586 -198.36328125 706.8515625 C-198.38409571 705.75398243 -198.40491016 704.65640236 -198.42635536 703.52556229 C-198.99195106 672.95264546 -199.00009189 642.37696547 -198.99761117 611.79987931 C-198.99796196 605.44289493 -199.00960942 599.08596562 -199.0235464 592.72899854 C-199.03680942 586.44211698 -199.04197938 580.15525934 -199.04134732 573.86836398 C-199.04109903 570.17919691 -199.04356424 566.49009755 -199.05452538 562.80094528 C-199.12814234 536.20824314 -198.61696302 509.35263686 -194.75 483 C-194.54002934 481.51044097 -194.33023997 480.02085638 -194.12060547 478.53125 C-190.85151634 455.71554838 -186.82485596 433.00671257 -182.8125 410.3125 C-182.66123657 409.45243347 -182.50997314 408.59236694 -182.35412598 407.70623779 C-169.47961831 334.55832517 -151.55822488 262.13239551 -131.95874023 190.53100586 C-128.55787904 178.0795001 -125.34816867 165.64442087 -122.75 153 C-122.58574524 152.20889832 -122.42149048 151.41779663 -122.2522583 150.60272217 C-117.69119128 128.55819984 -113.972534 106.41102755 -111.3203125 84.0546875 C-111.19389374 82.99903595 -111.06747498 81.9433844 -110.93722534 80.85574341 C-110.32096346 75.6877385 -109.7250947 70.51890261 -109.16748047 65.34423828 C-104.76562844 26.25879977 -104.76562844 26.25879977 -93.8125 13.3125 C-86.47550972 9.27500276 -78.50700822 8.23530376 -70.31640625 7.20703125 C-69.04707748 7.03749435 -67.77774872 6.86795746 -66.46995544 6.69328308 C-63.12038173 6.2463434 -59.76893828 5.81540195 -56.41687012 5.38763428 C-53.70211277 5.0384503 -50.9889328 4.6778375 -48.27575779 4.31659412 C-32.16741705 2.17291531 -16.26897356 0.13460265 0 0 Z " fill="#D80301" transform="translate(2754.8125,1548.6875)"/>
<path d="M0 0 C0.83660156 0.76570313 1.67320312 1.53140625 2.53515625 2.3203125 C2.53515625 2.9803125 2.53515625 3.6403125 2.53515625 4.3203125 C3.19515625 4.3203125 3.85515625 4.3203125 4.53515625 4.3203125 C5.88902561 5.97034078 7.22193767 7.6377512 8.53515625 9.3203125 C9.19515625 9.6503125 9.85515625 9.9803125 10.53515625 10.3203125 C10.53515625 10.9803125 10.53515625 11.6403125 10.53515625 12.3203125 C11.19515625 12.3203125 11.85515625 12.3203125 12.53515625 12.3203125 C13.9202515 13.94421727 15.24274574 15.62171583 16.53515625 17.3203125 C19.84556474 21.38511473 19.84556474 21.38511473 23.4375 25.1953125 C25.65684792 27.44359047 27.61755697 29.7965676 29.59765625 32.2578125 C32.55042049 35.90278213 35.53429969 39.50972569 38.58496094 43.07299805 C44.48409432 49.96950426 50.09755818 57.05458872 55.53515625 64.3203125 C56.07043945 65.03493652 56.60572266 65.74956055 57.15722656 66.48583984 C63.44130148 74.89713267 69.64369467 83.35884563 75.59765625 92.0078125 C76.02618896 92.63018799 76.45472168 93.25256348 76.89624023 93.89379883 C79.89823483 98.29573641 82.74554743 102.78127971 85.53515625 107.3203125 C86.36213013 108.6654895 86.36213013 108.6654895 87.20581055 110.0378418 C107.51486018 143.22247427 107.51486018 143.22247427 111.53515625 157.3203125 C111.94894531 158.46113281 111.94894531 158.46113281 112.37109375 159.625 C115.63528601 168.99832272 116.16681263 179.01270644 111.91796875 188.1640625 C107.97101576 194.31863327 101.96213344 197.02974143 95.0703125 198.796875 C87.43352817 200.37365327 79.89921882 200.35877068 72.13012695 200.30371094 C64.25489303 200.27056157 56.388203 200.46215454 48.51712036 200.69262695 C47.03919701 200.73579039 45.56122974 200.7774776 44.08322144 200.81762695 C41.97850481 200.87539218 39.87403202 200.9387929 37.76953125 201.00390625 C36.54459961 201.04056396 35.31966797 201.07722168 34.05761719 201.11499023 C30.56010426 201.26246625 30.56010426 201.26246625 27.23216248 201.83337402 C23.69841188 202.29880985 20.41965626 202.38335668 16.8605957 202.31665039 C7.32368482 202.25415904 -2.15450541 202.81526384 -11.671875 203.37890625 C-13.5737719 203.4888632 -15.47568362 203.5985641 -17.37760925 203.70802307 C-21.32848871 203.93639825 -25.27917088 204.16786902 -29.22973633 204.40161133 C-34.2990655 204.70128622 -39.36881836 204.99297975 -44.43874073 205.28242397 C-48.34985483 205.50658514 -52.260717 205.73491261 -56.17151451 205.96452522 C-58.04260413 206.07387001 -59.91377095 206.1819018 -61.7850132 206.28860283 C-64.38404624 206.43742104 -66.98268593 206.59184261 -69.58129883 206.74780273 C-70.74140976 206.81254036 -70.74140976 206.81254036 -71.92495728 206.87858582 C-75.82312649 207.06001294 -75.82312649 207.06001294 -79.46484375 208.3203125 C-82.71492174 208.39125554 -85.95300504 208.31710773 -89.203125 208.2578125 C-92.34081351 208.21630282 -92.34081351 208.21630282 -94.86132812 208.82397461 C-97.46582412 209.3204994 -99.73734461 209.38786949 -102.3828125 209.32421875 C-109.21079169 209.26132495 -115.97109454 209.75404287 -122.77734375 210.2578125 C-123.99357422 210.34482422 -125.20980469 210.43183594 -126.46289062 210.52148438 C-129.38935387 210.73129454 -132.31553546 210.94448708 -135.24163818 211.15924072 C-136.93898087 211.28221361 -138.63647964 211.4030341 -140.33404541 211.52288818 C-155.68370909 212.6077922 -171.02525459 213.80155174 -186.36757088 214.98506737 C-191.4680132 215.37849274 -196.56856508 215.77033913 -201.66943359 216.15820312 C-229.6435232 218.26841751 -229.6435232 218.26841751 -257.58203125 220.796875 C-258.64084503 220.89245697 -259.69965881 220.98803894 -260.79055786 221.08651733 C-272.22921773 222.28906916 -281.54039399 224.98189497 -289.40234375 233.625 C-303.02735538 251.43041292 -297.25479682 280.08194831 -295.52734375 300.8203125 C-295.25161814 304.19438057 -294.9776001 307.56858347 -294.70401001 310.94282532 C-294.5276943 313.1152558 -294.35044258 315.28761053 -294.17221069 317.45988464 C-293.70152942 323.23022725 -293.27531368 328.99914209 -292.9140625 334.77734375 C-291.99581044 357.33916577 -291.99581044 357.33916577 -281.65234375 376.3828125 C-273.55126876 381.30699534 -266.87296518 382.01326195 -257.46484375 381.3203125 C-256.80484375 380.9903125 -256.14484375 380.6603125 -255.46484375 380.3203125 C-253.81746349 380.13515644 -252.16503929 379.99374037 -250.51147461 379.87597656 C-244.83009455 379.39964689 -239.31532658 378.49631291 -233.71875 377.4296875 C-231.66045949 377.04785837 -229.6021074 376.66636104 -227.54370117 376.28515625 C-226.47961029 376.08647949 -225.41551941 375.88780273 -224.31918335 375.68310547 C-207.64145963 372.57846093 -190.96146104 369.6215268 -174.15234375 367.3203125 C-173.43442657 367.22085327 -172.7165094 367.12139404 -171.97683716 367.0189209 C-142.0653761 362.90719512 -102.7223348 357.88370448 -76.47265625 376.578125 C-71.92256196 380.52626129 -67.56302708 385.25284958 -66.46484375 391.3203125 C-65.80484375 391.3203125 -65.14484375 391.3203125 -64.46484375 391.3203125 C-64.13484375 392.3103125 -63.80484375 393.3003125 -63.46484375 394.3203125 C-62.80484375 394.9803125 -62.14484375 395.6403125 -61.46484375 396.3203125 C-60.66841638 397.78585728 -59.90292577 399.26826737 -59.15234375 400.7578125 C-56.1752689 406.33159883 -52.70052067 411.4513804 -49.08984375 416.6328125 C-34.79851405 437.23575768 -34.79851405 437.23575768 -31.46484375 449.3203125 C-30.80484375 449.3203125 -30.14484375 449.3203125 -29.46484375 449.3203125 C-29.34367187 449.95839844 -29.2225 450.59648438 -29.09765625 451.25390625 C-28.93007812 452.08019531 -28.7625 452.90648437 -28.58984375 453.7578125 C-28.42742188 454.58152344 -28.265 455.40523437 -28.09765625 456.25390625 C-27.88882813 456.93582031 -27.68 457.61773438 -27.46484375 458.3203125 C-26.80484375 458.6503125 -26.14484375 458.9803125 -25.46484375 459.3203125 C-24.43819362 461.686726 -23.52094954 464.0208986 -22.65234375 466.4453125 C-22.39243652 467.16452881 -22.1325293 467.88374512 -21.86474609 468.62475586 C-21.32608185 470.1225572 -20.79064271 471.621522 -20.25830078 473.12158203 C-19.52328036 475.15838016 -18.74931722 477.17480292 -17.9609375 479.19140625 C-14.70197585 487.96553377 -13.1171162 495.9985303 -14.46484375 505.3203125 C-17.04947422 510.94287787 -21.0040291 512.88037404 -26.46484375 515.3203125 C-43.23775761 521.44060651 -63.36285113 518.04704057 -80.65332031 516.55517578 C-82.96232393 516.36229097 -85.27008237 516.18733667 -87.58203125 516.03515625 C-93.377454 515.6529641 -98.91830862 514.92692348 -104.61328125 513.79296875 C-109.0224875 513.06212771 -113.45167322 512.82342468 -117.91015625 512.56640625 C-120.46484375 512.3203125 -120.46484375 512.3203125 -121.46484375 511.3203125 C-122.92587413 511.02277361 -124.39842388 510.78143213 -125.87353516 510.56420898 C-126.81186188 510.42413925 -127.7501886 510.28406952 -128.71694946 510.13975525 C-129.7397702 509.99180008 -130.76259094 509.84384491 -131.81640625 509.69140625 C-132.86379974 509.53744888 -133.91119324 509.38349152 -134.99032593 509.22486877 C-137.21443676 508.89920434 -139.43886429 508.57569676 -141.66357422 508.25415039 C-145.05539329 507.76280308 -148.44568005 507.26176077 -151.8359375 506.75976562 C-153.99600753 506.44472076 -156.1561613 506.13024942 -158.31640625 505.81640625 C-159.3270816 505.66642685 -160.33775696 505.51644745 -161.37905884 505.36192322 C-165.47489251 504.77608081 -169.45621231 504.23412135 -173.59912109 504.28930664 C-174.54480957 504.29953857 -175.49049805 504.30977051 -176.46484375 504.3203125 C-176.79484375 503.9903125 -177.12484375 503.6603125 -177.46484375 503.3203125 C-192.51656601 500.42344243 -207.99828282 500.0175511 -223.27734375 500.0078125 C-224.40760483 500.00284256 -224.40760483 500.00284256 -225.56069946 499.99777222 C-248.44969248 499.5286476 -248.44969248 499.5286476 -268.6953125 508.18359375 C-275.83019219 515.99518367 -276.00713303 523.51944296 -275.61950684 533.72058105 C-275.09690761 542.50495019 -273.77504361 551.23141547 -272.58984375 559.9453125 C-269.65923976 581.82552946 -267.53529669 603.64839389 -266.40234375 625.6953125 C-265.89015872 638.55327943 -265.89015872 638.55327943 -264.46484375 651.3203125 C-263.80484375 651.6503125 -263.14484375 651.9803125 -262.46484375 652.3203125 C-261.39453125 654.09765625 -261.39453125 654.09765625 -260.33984375 656.2578125 C-259.98664062 656.96808594 -259.6334375 657.67835938 -259.26953125 658.41015625 C-258.46484375 660.3203125 -258.46484375 660.3203125 -258.46484375 662.3203125 C-257.80484375 662.3203125 -257.14484375 662.3203125 -256.46484375 662.3203125 C-255.96984375 663.1246875 -255.47484375 663.9290625 -254.96484375 664.7578125 C-246.18319831 678.28027378 -228.77141763 686.03879031 -213.46484375 689.3203125 C-210.72230136 689.44665675 -210.72230136 689.44665675 -208.46484375 689.3203125 C-208.46484375 689.9803125 -208.46484375 690.6403125 -208.46484375 691.3203125 C-206.50417969 691.47306641 -206.50417969 691.47306641 -204.50390625 691.62890625 C-196.86718048 692.40008948 -189.36117497 693.88819866 -181.83984375 695.3828125 C-181.06949799 695.53581818 -180.29915222 695.68882385 -179.50546265 695.84646606 C-159.73170421 699.82168881 -141.18465298 705.56493596 -123.46484375 715.3203125 C-122.57667969 715.78308594 -121.68851563 716.24585937 -120.7734375 716.72265625 C-116.22169189 719.13331002 -112.14736567 721.90855794 -108.09375 725.0859375 C-106.47248424 726.3930641 -106.47248424 726.3930641 -104.46484375 727.3203125 C-104.46484375 727.9803125 -104.46484375 728.6403125 -104.46484375 729.3203125 C-103.92730469 729.54074219 -103.38976563 729.76117187 -102.8359375 729.98828125 C-99.66290413 731.77082553 -97.16179861 734.1562276 -94.52734375 736.6328125 C-94.01494141 737.10654297 -93.50253906 737.58027344 -92.97460938 738.06835938 C-57.89293501 770.65375195 -37.42674593 817.41455151 -35.33740234 865.23730469 C-34.86552673 882.9138229 -34.72781515 901.40036331 -47.46484375 915.3203125 C-55.87201252 921.63568175 -63.06629702 923.25526955 -73.46484375 922.3203125 C-89.29148199 919.33605232 -103.7251687 911.44505107 -117.88232422 904.05908203 C-121.95427515 901.90026636 -121.95427515 901.90026636 -126.46484375 901.3203125 C-126.89539062 900.88847656 -127.3259375 900.45664063 -127.76953125 900.01171875 C-130.08111737 897.70545887 -132.64460452 896.64526857 -135.58984375 895.2578125 C-141.35425551 892.54148897 -141.35425551 892.54148897 -142.46484375 890.3203125 C-144.45525929 889.62555324 -146.45714124 888.96341054 -148.46484375 888.3203125 C-150.32246776 887.42115837 -152.15996144 886.47939049 -153.9765625 885.5 C-154.98138672 884.96503906 -155.98621094 884.43007812 -157.02148438 883.87890625 C-159.12107324 882.74986969 -161.22002484 881.61964731 -163.31835938 880.48828125 C-164.31931641 879.95589844 -165.32027344 879.42351563 -166.3515625 878.875 C-167.71607544 878.13999268 -167.71607544 878.13999268 -169.1081543 877.39013672 C-171.48877073 876.11363493 -171.48877073 876.11363493 -174.46484375 876.3203125 C-175.80631989 874.99517201 -177.13843903 873.66053863 -178.46484375 872.3203125 C-181.05277243 870.78981608 -181.05277243 870.78981608 -183.953125 869.47265625 C-185.58531982 868.69619751 -185.58531982 868.69619751 -187.25048828 867.90405273 C-188.41435059 867.36079346 -189.57821289 866.81753418 -190.77734375 866.2578125 C-191.98720516 865.68579874 -193.19667362 865.11295317 -194.40576172 864.53930664 C-196.87851741 863.36727994 -199.35325851 862.19960804 -201.82958984 861.03515625 C-205.24330597 859.42790219 -208.64647169 857.79931961 -212.046875 856.1640625 C-213.5786438 855.42748413 -213.5786438 855.42748413 -215.14135742 854.67602539 C-216.11435791 854.20801514 -217.0873584 853.74000488 -218.08984375 853.2578125 C-224.50535336 850.17283581 -230.94913748 847.18691406 -237.46484375 844.3203125 C-239.35638227 843.48012102 -241.24789889 842.63988002 -243.13912964 841.79899597 C-246.04036074 840.50994371 -248.94322464 839.224591 -251.84619141 837.93945312 C-253.33165446 837.28125883 -254.81668727 836.62209262 -256.30126953 835.96191406 C-266.27692613 831.52681202 -276.30657194 827.31995517 -286.46484375 823.3203125 C-288.58930387 822.46804333 -290.71303742 821.61396014 -292.8359375 820.7578125 C-294.85794365 819.94499086 -296.8800801 819.13249328 -298.90234375 818.3203125 C-299.98580078 817.88517334 -301.06925781 817.45003418 -302.18554688 817.00170898 C-307.91766153 814.70860676 -313.66141706 812.48815657 -319.46484375 810.3828125 C-346.71673701 800.27785628 -373.8846048 787.8567701 -396.46484375 769.3203125 C-397.33753906 768.61390625 -398.21023437 767.9075 -399.109375 767.1796875 C-418.6896298 750.52876216 -430.09450441 728.08843883 -432.30870056 702.57139587 C-432.56223523 698.91624013 -432.60297429 695.27231166 -432.59765625 691.609375 C-432.5966391 690.79025131 -432.59562195 689.97112762 -432.59457397 689.12718201 C-432.53268922 680.46377873 -431.93738623 671.85389655 -431.29708862 663.21725464 C-429.44986633 637.9532052 -428.35326998 612.68395085 -427.58917236 587.36627197 C-427.48446247 583.92209744 -427.37218816 580.47820751 -427.2583952 577.03432274 C-425.39229157 520.31734781 -425.25058951 463.58932055 -425.22061694 406.84750938 C-425.21737598 400.85349576 -425.21153861 394.85949343 -425.20319623 388.86548477 C-425.14874731 349.31099221 -425.19513919 309.77382832 -426.390625 270.234375 C-426.41138564 269.54057826 -426.43214628 268.84678152 -426.45353603 268.13196063 C-427.17582687 244.14859648 -428.46279638 220.23065183 -430.46484375 196.3203125 C-430.53249939 195.51094238 -430.60015503 194.70157227 -430.66986084 193.86767578 C-431.25658138 186.87764158 -431.85708004 179.88883312 -432.47363281 172.90136719 C-433.3700457 162.71330422 -434.13407104 152.54325661 -434.46484375 142.3203125 C-434.50609375 141.11761719 -434.54734375 139.91492187 -434.58984375 138.67578125 C-434.85785257 123.75104016 -434.50050597 105.46300344 -423.47265625 94.01953125 C-405.25871363 78.60500783 -380.54523536 71.871005 -358.44696045 64.02484131 C-356.52502026 63.3417018 -354.60444981 62.65483041 -352.68408203 61.96728516 C-285.19083875 37.86752381 -215.62996353 18.05559292 -146.11538696 0.73262024 C-142.29602798 -0.21945126 -138.4802058 -1.1838802 -134.66796875 -2.1640625 C-133.83523438 -2.37675781 -133.0025 -2.58945313 -132.14453125 -2.80859375 C-130.47698707 -3.23486308 -128.81036284 -3.66474257 -127.14453125 -4.09765625 C-125.91863281 -4.40896484 -125.91863281 -4.40896484 -124.66796875 -4.7265625 C-123.95286133 -4.91057617 -123.23775391 -5.09458984 -122.50097656 -5.28417969 C-120.46484375 -5.6796875 -120.46484375 -5.6796875 -116.46484375 -5.6796875 C-116.13484375 -6.3396875 -115.80484375 -6.9996875 -115.46484375 -7.6796875 C-112.96060485 -8.36153472 -110.50588859 -8.92131542 -107.96484375 -9.4296875 C-106.3250118 -9.77362355 -104.68571699 -10.12012734 -103.046875 -10.46875 C-102.15436035 -10.65856445 -101.2618457 -10.84837891 -100.34228516 -11.04394531 C-96.18426275 -11.96261919 -92.05326392 -12.9841191 -87.91870117 -14.00244141 C-54.29389045 -22.26099048 -27.78091784 -22.51219269 0 0 Z " fill="#D80301" transform="translate(3615.46484375,1569.6796875)"/>
<path d="M0 0 C6.0290719 0.59683453 11.86291313 1.48087558 17.78515625 2.7421875 C19.46933951 3.09014169 21.1535866 3.43778708 22.83789062 3.78515625 C25.4240955 4.32313327 28.0096457 4.86381644 30.59399414 5.41064453 C52.19360068 9.96476582 73.91860521 12.17954503 95.89028931 14.0769043 C130.1729485 17.0631358 164.80087848 20.49895672 198 30 C198.68562012 30.19609863 199.37124023 30.39219727 200.07763672 30.59423828 C210.72065792 33.7275034 222.48816659 37.45845041 229 47 C231.91918765 52.50078217 232.51315261 56.97881962 232.4375 63.0625 C232.43065186 63.92520508 232.42380371 64.78791016 232.41674805 65.67675781 C232.03435426 81.61985755 228.18438877 96.99940176 223 112 C222.51912045 113.4369279 222.04005609 114.87446414 221.5625 116.3125 C221.04176576 117.87503303 220.52092959 119.43753209 220 121 C219.60663452 122.18178833 219.60663452 122.18178833 219.20532227 123.38745117 C200.10453075 180.4302581 173.4982836 235.17820969 147.27734375 289.2265625 C144.8680381 294.19501832 142.48879306 299.1764916 140.12817383 304.16821289 C128.06362732 329.62527566 115.74624332 355.05490378 101.51660156 379.38134766 C99.89579278 382.17993024 98.31518886 384.99850409 96.7421875 387.82421875 C89.88006857 400.14562462 82.71236704 412.19162757 75 424 C74.5064502 424.75619629 74.01290039 425.51239258 73.50439453 426.29150391 C62.99191108 442.33903397 52.1462443 458.13739816 40 473 C39.5472168 473.55719727 39.09443359 474.11439453 38.62792969 474.68847656 C9.23718105 510.62431088 9.23718105 510.62431088 -7.02734375 512.41796875 C-10.02789879 511.78220758 -11.10615106 510.37578926 -13 508 C-13.49447632 504.95100403 -13.49447632 504.95100403 -13.48583984 501.30395508 C-13.48958555 500.63190631 -13.49333126 499.95985754 -13.49719048 499.26744366 C-13.50452091 497.01768718 -13.48289435 494.76917873 -13.4609375 492.51953125 C-13.45930453 490.9096281 -13.459241 489.29972271 -13.46063232 487.68981934 C-13.45851713 483.31358161 -13.4297138 478.93788718 -13.39487457 474.56180191 C-13.37494623 471.80506173 -13.36240774 469.04838874 -13.35247803 466.29159546 C-13.20615739 425.84687534 -12.23917343 385.42425035 -11 345 C-10.97700081 344.24922935 -10.95400162 343.49845871 -10.93030548 342.72493744 C-10.52912613 329.65754031 -10.11494557 316.59056681 -9.68237305 303.52416992 C-9.11622043 286.34650715 -8.65961473 269.16944772 -8.34155273 251.98535156 C-8.17113209 243.05464802 -7.9007138 234.13543401 -7.5234375 225.2109375 C-6.99001788 212.52372878 -6.66325377 199.83423117 -6.35171127 187.13997555 C-5.46550559 151.07859245 -4.32888232 115.02538304 -3.140284 78.97291696 C-2.98287901 74.19714543 -2.82668708 69.4213353 -2.67098999 64.64550781 C-2.45825611 58.12356608 -2.24256735 51.60172581 -2.02490997 45.07994652 C-1.94439201 42.65887073 -1.86460158 40.23777062 -1.78560638 37.81664467 C-1.37281155 25.19595506 -0.90358817 12.59634493 0 0 Z " fill="#F6F6F6" transform="translate(1180,1813)"/>
<path d="M0 0 C2.08739775 -0.01249563 4.17477199 -0.02996661 6.26208496 -0.05255127 C9.17908388 -0.08228189 12.09550149 -0.09230689 15.01263428 -0.09695435 C16.31128418 -0.11540657 16.31128418 -0.11540657 17.63616943 -0.13423157 C22.29413892 -0.11709466 25.61768615 0.01904172 29.27044678 3.23117065 C32.35652123 8.19901861 32.72389756 12.15890167 32.74700928 17.82369995 C32.76220077 18.67015642 32.77739225 19.51661289 32.79304409 20.38871956 C32.84039506 23.19424377 32.86765636 25.9996091 32.89544678 28.8053894 C32.92625052 30.78984436 32.95859416 32.77427593 32.99238586 34.75868225 C33.06212237 38.9664606 33.12423098 43.17424811 33.18014526 47.38223267 C33.32623403 58.23489304 33.52787408 69.08656465 33.73529053 79.9382019 C33.75533583 81.00313873 33.77538113 82.06807556 33.79603386 83.1652832 C34.12799468 100.50519386 34.72290762 117.79687688 35.83294678 135.10617065 C35.92926392 136.62650406 35.92926392 136.62650406 36.02752686 138.17755127 C36.54786949 146.2402738 37.0837014 154.26662929 38.17338562 162.27514648 C38.27044678 164.23117065 38.27044678 164.23117065 37.27044678 167.23117065 C37.93044678 167.56117065 38.59044678 167.89117065 39.27044678 168.23117065 C39.25296387 169.54367798 39.23548096 170.8561853 39.21746826 172.20846558 C39.22005769 176.72590819 39.57156132 181.11405451 40.11810303 185.5944519 C40.20989838 186.3719429 40.30169373 187.1494339 40.39627075 187.95048523 C40.69992947 190.48268194 41.01467563 193.01327077 41.33294678 195.54367065 C41.44204376 196.41755432 41.55114075 197.29143799 41.6635437 198.19180298 C45.76529186 230.67623287 52.25007718 262.43172571 63.5536499 293.2194519 C64.20217769 295.03957075 64.77975801 296.88458683 65.34857178 298.73117065 C66.00217641 301.38222895 66.00217641 301.38222895 68.27044678 302.23117065 C68.94963225 304.29900923 69.62416897 306.36845615 70.27923584 308.44406128 C72.02830476 313.36213292 74.42249314 317.97642886 76.73828125 322.6479187 C78.31243948 325.82906763 79.86236511 329.02194548 81.41107178 332.21554565 C81.73008453 332.87337036 82.04909729 333.53119507 82.3777771 334.20895386 C85.52736584 340.72579593 88.57734997 347.28586324 91.55834961 353.88143921 C92.36896498 355.67265388 93.18749514 357.46028018 94.00628662 359.24777222 C107.3418761 388.94801674 107.3418761 388.94801674 102.39935303 402.64523315 C101.17883648 404.71811044 99.87498998 406.44101191 98.27044678 408.23117065 C97.82056396 408.74937378 97.37068115 409.2675769 96.90716553 409.80148315 C85.05558683 421.49994068 65.8028748 424.39887498 50.262146 428.38082886 C47.49737456 429.16667013 44.92943219 430.14982427 42.27044678 431.23117065 C40.91180522 431.6192173 39.54421168 431.97750533 38.16888428 432.30148315 C37.06286865 432.56251831 37.06286865 432.56251831 35.93450928 432.8288269 C35.17911865 433.00285034 34.42372803 433.17687378 33.64544678 433.35617065 C32.50075928 433.62880737 32.50075928 433.62880737 31.33294678 433.9069519 C28.25126016 434.62601212 25.44578442 435.23117065 22.27044678 435.23117065 C22.27044678 435.89117065 22.27044678 436.55117065 22.27044678 437.23117065 C21.10126709 437.31367065 19.9320874 437.39617065 18.72747803 437.48117065 C11.63307768 438.27020911 4.81939566 440.33869764 -2.04205322 442.23117065 C-3.41232672 442.60418865 -4.7827685 442.97658902 -6.15338135 443.34835815 C-8.65814314 444.02810189 -11.16159023 444.71206891 -13.66436768 445.3991394 C-15.33670782 445.85308884 -17.01080806 446.301322 -18.69215393 446.72068787 C-22.07264952 447.5676916 -25.42603671 448.51530001 -28.78424072 449.4460144 C-29.56340851 449.66181656 -30.34257629 449.87761871 -31.14535522 450.09996033 C-32.79117757 450.55608553 -34.43691753 451.01250812 -36.08258057 451.46920776 C-38.58819408 452.16413349 -41.09441039 452.85685529 -43.60064697 453.54953003 C-45.20354941 453.99405503 -46.8064152 454.43871219 -48.40924072 454.8835144 C-49.15318085 455.08879257 -49.89712097 455.29407074 -50.66360474 455.50556946 C-54.72865352 456.63666591 -58.73513901 457.86630357 -62.72955322 459.23117065 C-88.2453294 467.22370102 -88.2453294 467.22370102 -99.35455322 462.29367065 C-107.15001076 457.53268652 -111.32483565 449.85165374 -113.72955322 441.23117065 C-114.38431751 438.24489504 -114.91982408 435.24740746 -115.41705322 432.23117065 C-115.5365332 431.51533813 -115.65601318 430.79950562 -115.77911377 430.0619812 C-118.51065025 411.68493163 -118.07706114 392.75977984 -118.35455322 374.23117065 C-118.36560215 373.50871155 -118.37665108 372.78625244 -118.38803482 372.04190063 C-119.51985201 297.13795854 -120.09242512 220.84186367 -112.72955322 146.23117065 C-112.6515448 145.4266748 -112.57353638 144.62217896 -112.49316406 143.79330444 C-109.39688079 111.9549441 -105.03654083 80.26556573 -100.71783447 48.57492065 C-100.46180702 46.69151726 -100.46180702 46.69151726 -100.2006073 44.77006531 C-99.23805909 37.74851201 -98.18810042 30.75316934 -96.99949646 23.76596069 C-96.50008749 21.24058904 -96.50008749 21.24058904 -97.72955322 19.23117065 C-97.14331705 13.48375721 -95.51855656 8.66971742 -91.72955322 4.23117065 C-87.11777876 1.69000008 -82.29588576 1.80837727 -77.15924072 1.6413269 C-76.22989716 1.60451309 -75.30055359 1.56769928 -74.3430481 1.5297699 C-71.47214582 1.41966138 -68.60107891 1.32345771 -65.72955322 1.23117065 C-64.88783569 1.20254944 -64.04611816 1.17392822 -63.17889404 1.1444397 C-42.12945501 0.43843301 -21.06037216 0.10953604 0 0 Z " fill="#D80301" transform="translate(2421.7295532226563,1966.7688293457031)"/>
<path d="M0 0 C0.886875 0.48726562 1.77375 0.97453125 2.6875 1.4765625 C5.09615603 3.06334603 6.67018817 4.65678472 8.5 6.875 C10.43800284 9.1805551 12.31170583 11.29612054 14.5 13.375 C29.37472042 28.99345644 36.83225116 50.32946292 41.6875 70.875 C41.99167847 72.14790894 41.99167847 72.14790894 42.30200195 73.4465332 C45.35797657 87.07783879 46.32305038 100.70313414 46.20581055 114.63183594 C46.18733433 116.89529565 46.18530359 119.1583469 46.18554688 121.421875 C46.13480541 142.73038917 46.13480541 142.73038917 44 147 C44.66 147.33 45.32 147.66 46 148 C45.34 148 44.68 148 44 148 C43.67 150.97 43.34 153.94 43 157 C43.66 157.33 44.32 157.66 45 158 C44.34 158.33 43.68 158.66 43 159 C42.24993344 161.21622855 42.24993344 161.21622855 41.703125 163.93359375 C41.47004639 164.96589111 41.23696777 165.99818848 40.99682617 167.06176758 C40.75037354 168.17575928 40.5039209 169.28975098 40.25 170.4375 C34.42394705 195.56157504 25.30343355 219.89914675 10.75 241.375 C8.99751223 243.84101595 8.99751223 243.84101595 8.0625 246.125 C7 248 7 248 4.5625 249.9375 C1.85843429 252.11394313 0.65727642 253.98677015 -1 257 C-2.5625 259.3125 -2.5625 259.3125 -4 261 C-4.66 261 -5.32 261 -6 261 C-6.33 261.66 -6.66 262.32 -7 263 C-25.04482934 279.81450007 -45.16717201 288.95814406 -69.82324219 288.12744141 C-86.10386467 287.17426903 -99.02078698 278.25168984 -110 267 C-110.72832031 266.28070312 -111.45664063 265.56140625 -112.20703125 264.8203125 C-139.2070277 236.59546414 -145.04219586 191.85221738 -144.28515625 154.6953125 C-143.09122723 120.37609771 -135.15039584 87.35781558 -119.9375 56.625 C-119.30183105 55.33928101 -119.30183105 55.33928101 -118.65332031 54.02758789 C-109.97250564 36.7591367 -96.41494004 18.80718812 -81 7 C-80.34 7 -79.68 7 -79 7 C-79 6.34 -79 5.68 -79 5 C-72.44601431 -0.75641071 -64.01088721 -3.871324 -56 -7 C-55.19046875 -7.34417969 -54.3809375 -7.68835937 -53.546875 -8.04296875 C-35.67745893 -14.69713942 -15.84153372 -8.80085207 0 0 Z " fill="#D80402" transform="translate(2463,1620)"/>
<path d="M0 0 C0.66 0.33 1.32 0.66 2 1 C-4.6 7.6 -11.2 14.2 -18 21 C-18.66 20.67 -19.32 20.34 -20 20 C-17.79776179 17.59850306 -15.58712559 15.20488935 -13.375 12.8125 C-12.75753906 12.13896484 -12.14007812 11.46542969 -11.50390625 10.77148438 C-7.8733195 6.85427236 -4.18715347 3.3175139 0 0 Z " fill="#E25655" transform="translate(2382,1627)"/>
<path d="M0 0 C0 3 0 3 -1.56054688 4.90112305 C-2.62885742 5.94586792 -2.62885742 5.94586792 -3.71875 7.01171875 C-4.48574219 7.76904297 -5.25273438 8.52636719 -6.04296875 9.30664062 C-6.85378906 10.09232422 -7.66460938 10.87800781 -8.5 11.6875 C-9.31082031 12.48478516 -10.12164063 13.28207031 -10.95703125 14.10351562 C-12.96482203 16.0758748 -14.9792687 18.04091492 -17 20 C-17.99 19.67 -18.98 19.34 -20 19 C-15.06991125 13.96720107 -10.09137284 9.07783613 -4.7265625 4.5078125 C-3.07703058 3.06727105 -1.52920426 1.56673075 0 0 Z " fill="#E25150" transform="translate(1438,2841)"/>
<path d="M0 0 C0.66 0.33 1.32 0.66 2 1 C-3.61 6.61 -9.22 12.22 -15 18 C-15 13.78193333 -13.14807199 12.61332709 -10.3125 9.5625 C-9.44238281 8.61503906 -8.57226562 7.66757813 -7.67578125 6.69140625 C-5.23784139 4.23923024 -2.74711696 2.0937486 0 0 Z " fill="#E25553" transform="translate(1545,2086)"/>
<path d="M0 0 C0.66 0.33 1.32 0.66 2 1 C-0.97 3.97 -3.94 6.94 -7 10 C-7.66 9.67 -8.32 9.34 -9 9 C-6.21000549 5.51250686 -3.74764169 2.49842779 0 0 Z " fill="#E35B59" transform="translate(3198,1659)"/>
<path d="M0 0 C0.33 0.66 0.66 1.32 1 2 C-0.09346881 3.34212062 -1.2001575 4.67347975 -2.3125 6 C-3.23482422 7.11375 -3.23482422 7.11375 -4.17578125 8.25 C-6 10 -6 10 -9 10 C-6.03 6.7 -3.06 3.4 0 0 Z " fill="#E25755" transform="translate(940,2656)"/>
<path d="M0 0 C0.66 0.33 1.32 0.66 2 1 C-0.31 3.31 -2.62 5.62 -5 8 C-5.33 7.34 -5.66 6.68 -6 6 C-2.25 1.125 -2.25 1.125 0 0 Z " fill="#E25352" transform="translate(2944,1651)"/>
</svg>
