<?xml version="1.0" encoding="UTF-8"?>
<svg version="1.1" xmlns="http://www.w3.org/2000/svg" width="2248" height="1960">
<path d="M0 0 C1.25997925 2.46386719 1.25997925 2.46386719 2.34326172 5.796875 C2.75875275 7.04736633 3.17424377 8.29785767 3.60232544 9.58624268 C4.04504717 10.97407641 4.48749313 12.36199815 4.9296875 13.75 C5.40002251 15.18447209 5.87188441 16.61844435 6.34518433 18.05194092 C7.35022222 21.10597284 8.34507664 24.16305984 9.33190918 27.22302246 C10.87488083 32.00715681 12.43954819 36.78399773 14.00878906 41.55957031 C15.56985683 46.31302433 17.12999786 51.06675791 18.68237305 55.82305908 C22.33874252 67.02330002 26.07831812 78.19209367 29.91674805 89.3314209 C31.2704608 93.26067827 32.61506857 97.1930506 33.9609375 101.125 C34.46581694 102.59895949 34.97069972 104.07291783 35.47558594 105.546875 C35.98377743 107.03123169 36.49191434 108.51560708 37 110 C37.40248962 111.175625 37.40248962 111.175625 37.81311035 112.375 C39.42849284 117.09714359 41.03545047 121.82201404 42.63098145 126.55090332 C43.11904814 127.99348273 43.60976344 129.43516932 44.10339355 130.87585449 C44.77134226 132.82637648 45.42980645 134.77985169 46.0859375 136.734375 C46.4576709 137.82975586 46.8294043 138.92513672 47.21240234 140.05371094 C48.00257714 143.00964071 48.34406278 144.96959336 48 148 C46.37669373 150.21784973 46.37669373 150.21784973 44.07202148 152.47973633 C43.21370224 153.33445023 42.355383 154.18916412 41.47105408 155.06977844 C40.53056717 155.98132187 39.59008026 156.8928653 38.62109375 157.83203125 C37.65020913 158.79103477 36.68050496 159.7512347 35.71192932 160.71257019 C33.15574172 163.24400252 30.58537768 165.76052848 28.0112915 168.27374268 C24.40799188 171.79682923 20.8238382 175.33940079 17.23805237 178.8802948 C15.33101862 180.76341578 13.41816673 182.63991941 11.50157166 184.51338196 C7.08812234 188.84554903 2.86688434 193.23028441 -1.15538025 197.92558289 C-4.61741678 201.81890986 -8.34609542 205.45381572 -12.04516602 209.12033081 C-13.53714243 210.59931909 -15.02577553 212.08160502 -16.51367188 213.56469727 C-20.20668154 217.24447387 -23.90517112 220.91872627 -27.60351562 224.59313965 C-30.74070304 227.71045629 -33.87573602 230.82991088 -37.00805664 233.95211792 C-38.46097908 235.39865069 -39.91692281 236.84209167 -41.37304688 238.28540039 C-45.19509773 242.0933895 -48.97316206 245.88949019 -52.48632812 249.98632812 C-56.49750923 254.6614248 -60.85772925 258.97050947 -65.23036194 263.30552673 C-66.75593977 264.81812332 -68.27818086 266.33401202 -69.79968262 267.85070801 C-73.57616982 271.61395801 -77.35813511 275.37168668 -81.13995361 279.12957764 C-84.34759868 282.31735668 -87.55309295 285.50727042 -90.75587463 288.69993591 C-92.24203689 290.17970556 -93.73121996 291.65638565 -95.22058105 293.13293457 C-99.74596208 297.64202939 -104.11518218 302.19660206 -108.27276611 307.04568481 C-111.61959963 310.83253014 -115.23618489 314.35757601 -118.8203125 317.91796875 C-120.05284256 319.14837639 -120.05284256 319.14837639 -121.31027222 320.40364075 C-123.91282151 323.0006398 -126.51883653 325.59412841 -129.125 328.1875 C-130.88174294 329.93921997 -132.63825549 331.69117102 -134.39453125 333.44335938 C-137.61332387 336.65401919 -140.83340768 339.86337093 -144.05517578 343.07104492 C-144.74089661 343.75468109 -145.42661743 344.43831726 -146.13311768 345.14266968 C-147.27813859 346.28183203 -148.42563965 347.41851628 -149.57733154 348.55093384 C-152.83919186 351.76724572 -155.54897643 354.59735108 -156.41796875 359.2265625 C-155.78210532 363.44584318 -153.30459194 365.77553957 -150.5 368.875 C-149.67786011 369.80372925 -149.67786011 369.80372925 -148.83911133 370.7512207 C-139.63456021 381.41121735 -139.63456021 381.41121735 -126.87890625 386.16015625 C-117.21892133 385.74161271 -109.86379028 378.26293834 -102.8125 372.3125 C-101.32136898 371.06904449 -99.82916702 369.8268722 -98.3359375 368.5859375 C-97.60342773 367.97717773 -96.87091797 367.36841797 -96.11621094 366.74121094 C-93.09566789 364.25591871 -90.02403489 361.8400185 -86.9375 359.4375 C-81.90780606 355.51860547 -76.93957072 351.53190466 -72 347.5 C-64.1766448 341.11835729 -56.24927669 334.87800683 -48.29101562 328.66601562 C-41.45050815 323.32308789 -34.66016913 317.92824122 -27.9375 312.4375 C-22.15132846 307.71164336 -16.28513519 303.12332089 -10.34375 298.59375 C-6.50112759 295.6378866 -2.75256886 292.56882678 1 289.5 C6.84891071 284.71882483 12.76791916 280.05503067 18.7734375 275.47265625 C21.6786306 273.25393361 24.55859979 271.0044363 27.43115234 268.74365234 C28.63015432 267.80022287 29.83096324 266.85908467 31.03369141 265.92041016 C33.62422456 263.89516391 36.17211621 261.85279534 38.671875 259.71484375 C39.44015625 259.06644531 40.2084375 258.41804688 41 257.75 C41.639375 257.18796875 42.27875 256.6259375 42.9375 256.046875 C45.92774607 254.52909859 47.77085845 255.25485124 51 256 C53.69946289 257.23657227 53.69946289 257.23657227 56.47265625 258.81640625 C58.04635986 259.70283813 58.04635986 259.70283813 59.65185547 260.60717773 C60.77736816 261.25243408 61.90288086 261.89769043 63.0625 262.5625 C64.2613025 263.24068922 65.46069687 263.91783316 66.66064453 264.59399414 C69.17575658 266.01171706 71.68877935 267.43304761 74.20068359 268.85644531 C79.63540714 271.92971717 85.10536067 274.93882109 90.57589722 277.94772339 C93.00065315 279.28170315 95.42405727 280.61812899 97.8474884 281.95451355 C99.6791242 282.96453313 101.51093236 283.9742395 103.34277344 284.98388672 C108.79260606 287.9879275 114.24100684 290.99456347 119.68951416 294.00100708 C122.70961729 295.66744466 125.72981335 297.33371379 128.75 299 C129.95833378 299.66666586 131.16666711 300.33333253 132.375 301 C132.973125 301.33 133.57125 301.66 134.1875 302 C197.625 337 197.625 337 199.43746948 337.99998474 C200.64590276 338.6667055 201.85433782 339.33342303 203.06277466 340.00013733 C206.08209344 341.66594998 209.10138134 343.33181854 212.12060547 344.99780273 C217.57614804 348.0080569 223.03191643 351.017898 228.48883057 354.02566528 C241.9311858 361.43493093 255.36329346 368.86186761 268.77709961 376.32275391 C281.83322713 383.58140913 294.91667118 390.79052674 308 398 C308.21029594 416.3426227 307.61020331 434.6673558 307.08468616 452.99989748 C306.94969904 457.73065849 306.81799508 462.46151115 306.68585205 467.19235229 C306.42719167 476.43408787 306.16552937 485.67573605 305.90278263 494.91735625 C305.5962661 505.70180823 305.29259283 516.48633974 304.98897552 527.27087367 C304.44677102 546.5260277 303.90174292 565.78110078 303.35522461 585.03613281 C302.82609188 603.67864264 302.2993672 622.32121859 301.77514648 640.96386719 C301.20295956 661.31222144 300.62938002 681.66053558 300.053451 702.00878429 C299.99192621 704.18260381 299.93040231 706.35642335 299.86887932 708.53024292 C299.82348257 710.13417643 299.82348257 710.13417643 299.77716871 711.77051264 C299.56498327 719.27041859 299.35375392 726.77035111 299.14288521 734.27029419 C298.88552807 743.42239719 298.62656875 752.57445326 298.36563367 761.72645497 C298.23278709 766.38715531 298.10060317 771.04787169 297.97033501 775.70864487 C297.07138516 807.83618186 297.07138516 807.83618186 296.50401306 820.00024414 C296.47058101 820.76229125 296.43714896 821.52433836 296.40270382 822.30947781 C295.79096866 834.15560626 291.75115884 841.71517268 283.1875 849.75 C274.8817829 856.7459694 265.22001904 859.09314359 254.51509094 858.34214783 C249.84614797 857.70699438 245.50641923 856.11533793 241.07421875 854.5625 C240.03124634 854.20563614 238.98827393 853.84877228 237.91369629 853.48109436 C227.04649829 849.73304951 216.26407122 845.7517327 205.49267578 841.73828125 C199.29061706 839.4284414 193.08321409 837.13307631 186.875 834.83984375 C186.22867615 834.60101345 185.58235229 834.36218315 184.91644287 834.11611557 C170.3174569 828.72422334 155.67101591 823.46662809 141.01846313 818.22243118 C118.97222797 810.33182993 96.96945495 802.33594598 75.00927734 794.20800781 C56.04584634 787.19235904 37.03568639 780.31627323 18 773.5 C-5.30481108 765.15455256 -28.56810662 756.70569849 -51.77783203 748.09887695 C-54.05498182 747.25463588 -56.332162 746.4104768 -58.609375 745.56640625 C-60.23472672 744.96382744 -60.23472672 744.96382744 -61.89291382 744.34907532 C-68.18660534 742.02172663 -74.49548447 739.7463442 -80.828125 737.52734375 C-82.23886078 737.02857832 -83.64950992 736.52956776 -85.06005859 736.03027344 C-87.4584635 735.18152779 -89.86042736 734.35576637 -92.27197266 733.54394531 C-102.62003379 729.88400635 -110.57464423 723.78799684 -118.125 715.91796875 C-119.91078527 714.09125924 -121.75176861 712.41553555 -123.6875 710.75 C-127.32527372 707.6196564 -130.85639592 704.38762232 -134.375 701.125 C-139.03923835 696.80232453 -143.73694337 692.52183195 -148.47265625 688.27734375 C-151.33082203 685.70190225 -154.16710261 683.10314236 -157 680.5 C-160.64927171 677.14706883 -164.31169598 673.81001643 -168 670.5 C-172.20684327 666.72462783 -176.37674853 662.91019552 -180.5390625 659.0859375 C-183.67667086 656.20577393 -186.83020941 653.34468386 -190 650.5 C-194.20684327 646.72462783 -198.37674853 642.91019552 -202.5390625 639.0859375 C-205.67667086 636.20577393 -208.83020941 633.34468386 -212 630.5 C-216.20761261 626.7239374 -220.37842372 622.90895993 -224.54125977 619.08374023 C-227.65633125 616.22397796 -230.78851675 613.38484641 -233.9375 610.5625 C-238.3920991 606.56551622 -242.78918479 602.50925591 -247.18115234 598.44384766 C-251.24611811 594.6852202 -255.34984906 590.97250157 -259.47265625 587.27734375 C-262.33082203 584.70190225 -265.16710261 582.10314236 -268 579.5 C-271.64927171 576.14706883 -275.31169598 572.81001643 -279 569.5 C-283.20684327 565.72462783 -287.37674853 561.91019552 -291.5390625 558.0859375 C-294.67667086 555.20577393 -297.83020941 552.34468386 -301 549.5 C-305.20684327 545.72462783 -309.37674853 541.91019552 -313.5390625 538.0859375 C-316.67667086 535.20577393 -319.83020941 532.34468386 -323 529.5 C-327.20684327 525.72462783 -331.37674853 521.91019552 -335.5390625 518.0859375 C-338.67667086 515.20577393 -341.83020941 512.34468386 -345 509.5 C-349.20684327 505.72462783 -353.37674853 501.91019552 -357.5390625 498.0859375 C-360.67667086 495.20577393 -363.83020941 492.34468386 -367 489.5 C-370.78578437 486.09952163 -374.5561511 482.68292403 -378.3125 479.25 C-379.76076172 477.92742187 -379.76076172 477.92742187 -381.23828125 476.578125 C-392.03047777 466.50337295 -397.3018651 457.86622983 -398 443 C-397.87033977 439.36814735 -397.47946072 435.79132289 -397.04621887 432.18432617 C-396.93147254 431.15363353 -396.81672621 430.12294088 -396.69850272 429.06101513 C-396.31453945 425.63704401 -395.91477169 422.21511469 -395.51489258 418.79296875 C-395.23490131 416.32657094 -394.95585293 413.86006594 -394.67767334 411.39346313 C-393.99979642 405.40713113 -393.31147064 399.42208788 -392.61781404 393.43757081 C-392.05385656 388.57041527 -391.49412552 383.70279092 -390.93735313 378.83480835 C-390.85788706 378.14008366 -390.77842099 377.44535897 -390.69654685 376.72958201 C-390.53508835 375.31793872 -390.37363676 373.90629463 -390.21219202 372.49464977 C-388.70024077 359.2792516 -387.17426843 346.0655011 -385.64368358 332.85224998 C-384.332906 321.5333701 -383.03521821 310.21305048 -381.74682617 298.89160156 C-380.24801563 285.72115381 -378.74026937 272.55177602 -377.21898001 259.38390446 C-377.05654737 257.97766853 -376.8941292 256.57143094 -376.73172569 255.16519165 C-376.65183436 254.47342856 -376.57194302 253.78166547 -376.48963073 253.06893986 C-375.92934095 248.21193314 -375.37545968 243.35422068 -374.82416725 238.4961853 C-374.0809203 231.94799917 -373.32337934 225.40157305 -372.55636597 218.85612106 C-372.2775979 216.45856381 -372.00339054 214.06047105 -371.7341671 211.66182327 C-371.36485635 208.37817758 -370.9788276 205.09690206 -370.58869934 201.81567383 C-370.48683109 200.87469943 -370.38496283 199.93372503 -370.28000766 198.96423626 C-369.18120793 190.01203907 -366.68730289 181.14975221 -361 174 C-360.58878906 173.46117187 -360.17757812 172.92234375 -359.75390625 172.3671875 C-356.14555936 168.1871285 -351.9505851 165.77969233 -347.03125 163.41015625 C-346.33626404 163.06917404 -345.64127808 162.72819183 -344.92523193 162.37687683 C-343.4136936 161.63592565 -341.90084219 160.89764848 -340.38684082 160.16174316 C-337.95951277 158.98029371 -335.53729529 157.78891411 -333.11621094 156.59472656 C-327.83259739 153.99014677 -322.54228296 151.39941212 -317.25 148.8125 C-316.30336487 148.3495755 -315.35672974 147.886651 -314.38140869 147.40969849 C-302.19909404 141.45678745 -289.98210041 135.61055185 -277.65527344 129.9621582 C-267.18795166 125.14192419 -256.84652432 120.07309676 -246.5 115 C-235.09160339 109.40624715 -223.67682434 103.85533588 -212.125 98.5625 C-200.15030861 93.0747031 -188.324181 87.30328058 -176.5 81.5 C-164.67581093 75.69671546 -152.84959645 69.92551721 -140.875 64.4375 C-129.22294027 59.09641903 -117.70017484 53.50894452 -106.1875 47.875 C-105.29197418 47.43682953 -104.39644836 46.99865906 -103.4737854 46.54721069 C-99.97577509 44.8354978 -96.47784721 43.12361666 -92.98008728 41.41139221 C-80.35259104 35.23278 -67.66248647 29.19017318 -54.94140625 23.20703125 C-53.86783119 22.70200829 -53.86783119 22.70200829 -52.77256775 22.18678284 C-49.09638786 20.45797921 -45.41912794 18.73153368 -41.73999023 17.0090332 C-34.93400616 13.81898943 -28.14595682 10.60152963 -21.40625 7.2734375 C-20.25366699 6.7074585 -19.10108398 6.14147949 -17.91357422 5.55834961 C-15.77476339 4.50418739 -13.64066471 3.44039138 -11.51220703 2.36547852 C-10.10237549 1.67216431 -10.10237549 1.67216431 -8.6640625 0.96484375 C-7.85404785 0.5587085 -7.0440332 0.15257324 -6.20947266 -0.26586914 C-3.53292124 -1.15519401 -2.56623553 -1.16046021 0 0 Z " fill="#D80300" transform="translate(801,873)"/>
<path d="M0 0 C0.66 0.33 1.32 0.66 2 1 C-7.87146127 36.6435946 -17.76959569 72.27928128 -27.8125 107.875 C-28.11668413 108.95319756 -28.11668413 108.95319756 -28.4270134 110.05317688 C-29.04825344 112.25518139 -29.66951143 114.45718083 -30.29077148 116.65917969 C-31.13137583 119.63866393 -31.97194719 122.61815747 -32.8125 125.59765625 C-33.12684588 126.71183489 -33.12684588 126.71183489 -33.44754219 127.84852219 C-39.71522305 150.06579447 -45.94475142 172.29378343 -52.17358398 194.52197266 C-53.13521571 197.95346122 -54.09689607 201.38493616 -55.05859375 204.81640625 C-55.29774443 205.6697908 -55.5368951 206.52317535 -55.78329277 207.40242004 C-59.41793927 220.37120053 -63.06369865 233.33682551 -66.71473503 246.3010006 C-68.32448733 252.01826585 -69.93255671 257.7360047 -71.54057026 263.45375919 C-73.07934593 268.92456871 -74.62084389 274.39460167 -76.16433239 279.86408329 C-77.11553036 283.23728286 -78.0640903 286.61122 -79.01191521 289.98536873 C-79.45169691 291.54884257 -79.89258315 293.11200621 -80.33465767 294.6748333 C-80.93942149 296.81333302 -81.54024634 298.95290236 -82.14013672 301.09277344 C-82.47713593 302.28884216 -82.81413513 303.48491089 -83.16134644 304.71722412 C-83.94969681 307.80309619 -84.52955824 310.85157554 -85 314 C-79.00799687 310.05364461 -73.01643108 306.10662586 -67.02514648 302.15917969 C-64.99366786 300.82081645 -62.96209494 299.48259634 -60.93041992 298.14453125 C-51.14387038 291.69896547 -41.35872785 285.25211249 -31.61567688 278.74093628 C-23.75303987 273.49165608 -15.84821444 268.30615677 -7.95071411 263.10955811 C6.54020873 253.57330923 21.01470434 244.01400467 35.4375 234.375 C45.77013591 227.47088029 56.13070879 220.61285302 66.53237915 213.8132019 C78.41325841 206.04657736 90.27284016 198.24788133 102.125 190.4375 C103.08249146 189.80655426 104.03998291 189.17560852 105.02648926 188.52554321 C117.09858614 180.56879458 129.15104922 172.5844058 141.16967773 164.54711914 C151.05706928 157.94294834 160.99729014 151.42011707 170.93890381 144.89797974 C184.0012955 136.32762982 197.02012767 127.69491818 210 119 C210.66 119.33 211.32 119.66 212 120 C204.59363213 133.33622511 197.10515245 146.61225123 189.38964844 159.77246094 C184.91951323 167.40409741 180.50763191 175.06788203 176.125 182.75 C175.79196869 183.33365326 175.45893738 183.91730652 175.11581421 184.51864624 C173.42200953 187.48759504 171.72904238 190.45702023 170.03662109 193.42675781 C166.67347956 199.32801676 163.30631826 205.22698012 159.9375 211.125 C159.44085342 211.99454315 159.44085342 211.99454315 158.93417358 212.88165283 C151.04951284 226.68335191 143.09878696 240.4467541 135.14550781 254.20898438 C133.28397328 257.43068275 131.42301161 260.65271079 129.5625 263.875 C128.94697266 264.94105469 128.33144531 266.00710938 127.69726562 267.10546875 C123.76801098 273.91726713 119.85932243 280.74045209 115.96459961 287.57202148 C114.62167162 289.92720432 113.27613847 292.28086485 111.92797852 294.63305664 C108.64621576 300.35971637 105.38299581 306.095377 102.16015625 311.85546875 C100.94048024 314.00802563 99.72044466 316.16037883 98.5 318.3125 C97.96109131 319.29041504 97.42218262 320.26833008 96.86694336 321.27587891 C93.35085625 327.42889601 89.63150629 331.71992767 84 336 C83.24090332 336.58773193 82.48180664 337.17546387 81.69970703 337.78100586 C79.25431021 339.64877536 76.78733906 341.48395497 74.3125 343.3125 C72.52559725 344.64263234 70.73913821 345.97336098 68.953125 347.3046875 C67.66825195 348.26133301 67.66825195 348.26133301 66.35742188 349.23730469 C62.3748224 352.21518043 58.44336356 355.25713991 54.5078125 358.296875 C43.01452032 367.16721669 31.44316972 375.93579789 19.8125 384.625 C12.64239564 389.9830962 5.55186142 395.43314688 -1.49951172 400.94628906 C-6.87125725 405.13996829 -12.29749287 409.25284699 -17.75976562 413.32763672 C-23.28481014 417.45248019 -28.77044113 421.62747124 -34.25 425.8125 C-41.3077155 431.20134844 -48.38974421 436.55567076 -55.5 441.875 C-61.84565564 446.62343323 -68.16253132 451.40217829 -74.4296875 456.25390625 C-77.37869218 458.53108587 -80.34823279 460.78037675 -83.3203125 463.02734375 C-84.26592041 463.74349854 -85.21152832 464.45965332 -86.18579102 465.19750977 C-88.06984597 466.62362248 -89.95568678 468.04737966 -91.84350586 469.46850586 C-92.71112549 470.1260083 -93.57874512 470.78351074 -94.47265625 471.4609375 C-95.24875244 472.04665527 -96.02484863 472.63237305 -96.82446289 473.23583984 C-99.03875536 475.03142703 -101.02129867 476.95011831 -103 479 C-102.44054687 479.71800781 -101.88109375 480.43601562 -101.3046875 481.17578125 C-93.6999553 490.99346607 -86.34538418 500.98753001 -79 511 C-71.87734018 520.70008175 -64.73106163 530.38035544 -57.5 540 C-49.10799545 551.16407315 -40.82811346 562.40934441 -32.57421875 573.67578125 C-26.38074062 582.11879809 -20.11619438 590.49873554 -13.75 598.8125 C-8.98591268 605.03467144 -4.29956612 611.28910816 0.21289062 617.69580078 C3.79676816 622.76506227 7.51617462 627.72798119 11.25 632.6875 C16.21992576 639.28904287 21.16555655 645.90660094 26.0625 652.5625 C26.63726074 653.34343018 27.21202148 654.12436035 27.80419922 654.92895508 C30.68204781 658.84164925 33.55532886 662.75765875 36.42578125 666.67578125 C43.29077669 676.0342178 50.26282981 685.30058988 57.31982422 694.51513672 C61.36514785 699.81153053 65.30406632 705.16102294 69.13378906 710.61450195 C72.95235282 716.01411562 76.97682516 721.25191667 81 726.5 C85.84816864 732.82562047 90.62305756 739.17875473 95.21191406 745.69458008 C98.79632245 750.76410564 102.51585845 755.72756122 106.25 760.6875 C111.21992576 767.28904287 116.16555655 773.90660094 121.0625 780.5625 C121.63726074 781.34343018 122.21202148 782.12436035 122.80419922 782.92895508 C125.68204781 786.84164925 128.55532886 790.75765875 131.42578125 794.67578125 C137.61925938 803.11879809 143.88380562 811.49873554 150.25 819.8125 C155.01408732 826.03467144 159.70043388 832.28910816 164.21289062 838.69580078 C167.79676816 843.76506227 171.51617462 848.72798119 175.25 853.6875 C180.21992487 860.2890417 185.16565919 866.90652611 190.0625 873.5625 C190.62855957 874.33182861 191.19461914 875.10115723 191.77783203 875.89379883 C194.15537074 879.12702176 196.53110975 882.3615648 198.90673828 885.59619141 C200.81199598 888.18973843 202.71847904 890.78238153 204.625 893.375 C205.20515869 894.16592041 205.78531738 894.95684082 206.38305664 895.77172852 C208.66641175 898.87645859 210.9484274 901.93734014 213.3984375 904.9140625 C215 907 215 907 215 909 C206.75348673 907.50291304 198.69567343 905.41079029 190.60546875 903.23828125 C189.17420723 902.85633857 187.74287997 902.47464213 186.31149292 902.09317017 C182.42125644 901.05542225 178.53214314 900.01352248 174.64326859 898.97068405 C172.16126024 898.30546734 169.6789367 897.64144007 167.19650269 896.97781372 C133.05523656 887.8508451 98.94301853 878.61662729 64.833395 869.37225342 C42.70310315 863.37473125 20.56750932 857.39686994 -1.56871414 851.42128372 C-4.75495788 850.56116163 -7.94118615 849.70098227 -11.12741089 848.84078979 C-39.67916158 841.13272125 -68.23244899 833.43035961 -96.7867012 825.73156357 C-127.96026538 817.32650185 -159.13333181 808.91959665 -190.3046875 800.50634766 C-194.54989574 799.36057391 -198.79517544 798.21506554 -203.04052734 797.06982422 C-213.78898721 794.17011926 -224.53639177 791.26658713 -235.28194618 788.35613251 C-241.3448922 786.71507224 -247.41051842 785.0842719 -253.47773838 783.45908737 C-257.6061401 782.3520535 -261.73306551 781.23958566 -265.85971642 780.12604523 C-267.821989 779.59788339 -269.78490508 779.07210607 -271.74848366 778.5488205 C-274.44690279 777.82940966 -277.14296389 777.10174333 -279.83862305 776.37207031 C-280.64077177 776.16042992 -281.44292049 775.94878952 -282.26937675 775.73073578 C-287.7720156 774.2279844 -287.7720156 774.2279844 -290 772 C-261.92598485 765.01364203 -233.78401886 758.32090669 -205.625 751.6875 C-204.71741566 751.47369186 -203.80983131 751.25988373 -202.87474442 751.03959656 C-194.04008457 748.95845766 -185.20523856 746.87810955 -176.37028503 744.79821777 C-151.35415788 738.90847221 -126.34217264 733.00118373 -101.33038521 727.09304142 C-93.55578675 725.25657397 -85.78110495 723.42046037 -78.0062815 721.58494568 C-72.616295 720.3124361 -67.22638766 719.03959161 -61.83653963 717.7664957 C-58.7089576 717.02776182 -55.58133383 716.28920562 -52.45363998 715.55094528 C-36.29376565 711.73639091 -20.14262752 707.88691483 -4 704 C-4.92888535 703.20933136 -5.85777069 702.41866272 -6.81480408 701.60403442 C-7.33730208 701.15928331 -7.85980009 700.7145322 -8.39813137 700.25630379 C-13.61100498 695.82195348 -18.86826505 691.46041092 -24.23046875 687.20703125 C-27.71368435 684.43126705 -31.16987203 681.62310099 -34.625 678.8125 C-35.30433594 678.25997559 -35.98367188 677.70745117 -36.68359375 677.13818359 C-38.0829158 675.9999242 -39.48216623 674.86157677 -40.88134766 673.72314453 C-42.98646524 672.01100811 -45.09263866 670.30018031 -47.19921875 668.58984375 C-53.84741843 663.19200795 -60.48850171 657.78595076 -67.11328125 652.359375 C-73.39627699 647.2241525 -79.70028106 642.11468124 -86 637 C-94.04818289 630.46575769 -102.09358329 623.92857452 -110.11328125 617.359375 C-116.39627699 612.2241525 -122.70028106 607.11468124 -129 602 C-137.04818289 595.46575769 -145.09358329 588.92857452 -153.11328125 582.359375 C-159.39627699 577.2241525 -165.70028106 572.11468124 -172 567 C-180.04818289 560.46575769 -188.09358329 553.92857452 -196.11328125 547.359375 C-202.39627699 542.2241525 -208.70028106 537.11468124 -215 532 C-223.04818289 525.46575769 -231.09358329 518.92857452 -239.11328125 512.359375 C-245.39627699 507.2241525 -251.70028106 502.11468124 -258 497 C-266.04170892 490.47101384 -274.08106785 483.93960706 -282.09375 477.375 C-286.40876622 473.84875019 -290.73628256 470.33793063 -295.0625 466.82543945 C-300.7198079 462.23091668 -306.36419336 457.62088383 -312 453 C-308.88287172 447.29923728 -305.32376858 442.04327218 -301.5625 436.75 C-300.29993089 434.96023499 -299.03823163 433.16985608 -297.77734375 431.37890625 C-297.14296387 430.4780127 -296.50858398 429.57711914 -295.85498047 428.64892578 C-293.07859164 424.68422208 -290.34946833 420.68798514 -287.625 416.6875 C-282.79107147 409.59605326 -277.90817095 402.54025615 -273 395.5 C-268.13509197 388.52119421 -263.29314233 381.52829804 -258.5 374.5 C-252.98650875 366.41590163 -247.40574671 358.37987981 -241.81176758 350.35131836 C-236.17377057 342.25739377 -230.57677229 334.13618122 -225 326 C-218.74301154 316.87142358 -212.45182657 307.76785492 -206.125 298.6875 C-201.21894913 291.64588082 -196.33564317 284.59015973 -191.5 277.5 C-185.98648154 269.41591993 -180.40574694 261.37988015 -174.81176758 253.35131836 C-169.17377057 245.25739377 -163.57677229 237.13618122 -158 229 C-151.74301154 219.87142358 -145.45182657 210.76785492 -139.125 201.6875 C-134.21894913 194.64588082 -129.33564317 187.59015973 -124.5 180.5 C-118.98648154 172.41591993 -113.40574694 164.37988015 -107.81176758 156.35131836 C-102.17377057 148.25739377 -96.57677229 140.13618122 -91 132 C-84.01281786 121.80611417 -76.97722981 111.64712021 -69.91455078 101.50537109 C-64.2438479 93.35905072 -58.6116502 85.18706603 -53 77 C-46.74301096 67.87142274 -40.45171949 58.76793015 -34.125 49.6875 C-27.5787156 40.2895444 -21.08707316 30.85603456 -14.63378906 21.39404297 C-11.65599492 17.0305867 -8.67121869 12.67190615 -5.6875 8.3125 C-4.58721171 6.70444616 -3.48694857 5.0963751 -2.38671875 3.48828125 C-1.59114583 2.32552083 -0.79557292 1.16276042 0 0 Z " fill="#D80300" transform="translate(312,0)"/>
<path d="M0 0 C1.14610483 -0.00551503 1.14610483 -0.00551503 2.31536329 -0.01114148 C4.87767861 -0.02216137 7.43995336 -0.0260193 10.00228882 -0.02983093 C11.83884815 -0.03609692 13.67540621 -0.04274384 15.51196289 -0.04974365 C21.54567585 -0.07077237 27.57938904 -0.08114572 33.61312866 -0.09111023 C35.69188831 -0.09515839 37.77064782 -0.09927533 39.8494072 -0.10346031 C49.61723639 -0.12251027 59.38505805 -0.13674107 69.15290225 -0.14507228 C80.41937184 -0.15484087 91.68564477 -0.18115142 102.95204508 -0.22157317 C111.66558739 -0.25176024 120.37907341 -0.26654367 129.09266698 -0.26985329 C134.29426449 -0.27220103 139.49565185 -0.28112555 144.69719315 -0.30631447 C149.59412811 -0.32964512 154.4907153 -0.33380832 159.3876915 -0.32355309 C161.17989511 -0.32305881 162.97211613 -0.32934714 164.76426697 -0.34310913 C177.87480149 -0.43811017 188.47753432 0.86333103 198.44906616 10.14717102 C207.24776799 19.59762854 209.07437579 29.50163439 208.81855774 42.08770752 C208.80249461 43.52257569 208.78734066 44.95745427 208.77299112 46.3923406 C208.50863087 67.08714864 207.5500333 87.77524812 206.68832242 108.45151746 C206.42777315 114.73944705 206.17510179 121.02769434 205.92138672 127.31590271 C205.48217333 138.17528928 205.03814085 149.03446802 204.59051704 159.89351082 C204.12143882 171.27328784 203.65505355 182.65316996 203.19218254 194.03320122 C203.16321438 194.7453521 203.13424623 195.45750298 203.10440025 196.19123419 C202.98678366 199.08293179 202.86918703 201.97463019 202.75161628 204.86632965 C201.68395771 231.12578263 200.60994784 257.38497171 199.53182983 283.64399719 C198.51605396 308.38471807 197.50409849 333.12559107 196.49667358 357.86665344 C196.46558147 358.63021097 196.43448936 359.3937685 196.40245507 360.18046414 C196.24583332 364.02678456 196.08921769 367.87310523 195.93260395 371.71942597 C195.90169329 372.47856722 195.87078262 373.23770846 195.83893527 374.01985398 C195.77659954 375.55078641 195.71426513 377.0817189 195.65193205 378.61265144 C194.65820775 403.01856459 193.66160834 427.42436039 192.66429402 451.83012708 C192.37301952 458.95816756 192.08185534 466.08621251 191.79097104 473.21426892 C191.18002523 488.18453862 190.56807203 503.15476563 189.95300192 518.12486655 C189.69888014 524.31018299 189.44527271 530.49551925 189.19315529 536.68091774 C188.96207394 542.34957991 188.72936604 548.01817295 188.49538886 553.68671631 C188.41133159 555.72971829 188.32784243 557.77274374 188.24500067 559.81579537 C187.78014893 571.27044525 187.22472352 582.70892864 186.44906616 594.14717102 C178.42445386 592.03971347 170.55659832 589.6098043 162.69125366 586.97138977 C161.48629745 586.56972092 160.28134125 586.16805206 159.03987122 585.75421143 C155.80302827 584.67491716 152.56751858 583.59168038 149.33234024 582.50740814 C147.30899245 581.82962159 145.28526896 581.15296907 143.26141357 580.47669983 C122.75815303 573.62542041 102.2798558 566.70313628 81.83427429 559.68145752 C72.84773229 556.59537759 63.85505753 553.52728403 54.8625679 550.45858765 C50.58673246 548.99917461 46.31109014 547.53919638 42.03546143 546.07917786 C41.20752799 545.79646404 40.37959455 545.51375023 39.52657223 545.22246933 C37.50073537 544.53070763 35.47490056 543.83893993 33.44906616 543.14717102 C28.41433582 508.18208291 23.51753053 473.19860918 18.67919552 438.20587968 C17.66108539 430.84286747 16.64162687 423.48004207 15.62218536 416.11721409 C11.17654199 384.00792007 6.73822547 351.89761243 2.30004796 319.78728577 C1.96105098 317.33464287 1.62204884 314.88200068 1.28304505 312.42935872 C0.60718564 307.53961255 -0.06866276 302.64986486 -0.74450684 297.76011658 C-0.85564382 296.95604274 -0.96678081 296.15196891 -1.08128558 295.3235292 C-2.31052381 286.42997334 -3.53963881 277.53640047 -4.76846695 268.64278793 C-9.76435733 232.48551712 -14.77114985 196.32984796 -19.81505173 160.17923623 C-21.53103865 147.87830426 -23.23984346 135.57637415 -24.94730854 123.27425671 C-26.2140332 114.15041337 -27.48759396 105.02757922 -28.7705825 95.90600842 C-29.61792945 89.87753734 -30.45715858 83.8479737 -31.28961819 77.81742889 C-31.75184631 74.47084609 -32.21884324 71.12513673 -32.69399834 67.78035164 C-38.39553924 27.61236354 -38.39553924 27.61236354 -28.82437134 13.62373352 C-21.2797318 4.27831582 -11.78326132 -0.00304672 0 0 Z " fill="#D80300" transform="translate(874.5509338378906,474.8528289794922)"/>
<path d="M0 0 C0.69222656 -0.03738281 1.38445312 -0.07476563 2.09765625 -0.11328125 C13.95188695 -0.30690752 25.03044755 7.26619014 35.3125 12.5 C43.90591063 16.86394182 52.5375635 21.12731704 61.2421875 25.265625 C75.14018758 31.88391643 88.95969743 38.65978766 102.7489996 45.50124168 C106.69545262 47.45899873 110.64487512 49.41017604 114.60180664 51.34667969 C118.50644683 53.25778126 122.40282346 55.18484529 126.2940731 57.12305832 C127.75393077 57.8469358 129.21649916 58.56537742 130.68198586 59.27779007 C144.13189397 65.82484317 154.55995318 72.78312119 159.73828125 87.46875 C165.16220805 106.06507046 154.13098106 129.14123098 149.23579788 147.12988663 C148.61652342 149.40615742 147.99785961 151.68259339 147.37936401 153.95907593 C139.2686709 183.80903895 131.07011824 213.63471171 122.85820007 243.45695496 C122.62745977 244.29491293 122.39671947 245.1328709 122.15898705 245.99622154 C121.69392101 247.68514984 121.22884458 249.37407526 120.76375771 251.06299782 C116.09231728 268.0279617 111.44066548 284.99831359 106.79450226 301.97021484 C99.37325158 329.07889317 91.93423115 356.18265065 84.485569 383.28380966 C76.8493755 411.06729868 69.22104654 438.85289867 61.61558819 466.64481831 C59.98054381 472.61956997 58.34485891 478.59414595 56.70874023 484.56860352 C56.47738908 485.41342757 56.24603792 486.25825163 56.00767612 487.12867641 C55.06607053 490.56711858 54.12445689 494.00555854 53.18278694 497.44398308 C50.32459134 507.88063491 47.46844057 518.31784235 44.61523438 528.75585938 C42.00814906 538.29342595 39.39830532 547.83023335 36.78555298 557.36624908 C35.38622705 562.47393412 33.98822176 567.581972 32.59350586 572.69091797 C31.29290819 577.4550191 29.98879421 582.21814368 28.68201447 586.98055267 C28.20243656 588.7307658 27.72414459 590.48133189 27.24724579 592.23227692 C26.59181942 594.63791863 25.93172293 597.04223304 25.27050781 599.44628906 C24.99014805 600.48188713 24.99014805 600.48188713 24.70412445 601.53840637 C23.39663388 606.26577976 21.77254853 610.80107437 20 615.375 C14.18487009 614.74684094 9.16333265 612.63004344 3.7890625 610.45703125 C2.26450691 609.84925591 2.26450691 609.84925591 0.70915222 609.22920227 C-1.49729496 608.34886089 -3.70266443 607.46581466 -5.90707397 606.5803833 C-10.62444441 604.68566396 -15.34694018 602.80388331 -20.06919861 600.92138672 C-22.55291245 599.93115679 -25.03639812 598.94037539 -27.51954651 597.94873047 C-41.38781773 592.41224229 -55.28681489 586.95447873 -69.1875 581.5 C-71.52199482 580.58314563 -73.85646801 579.66623616 -76.19091797 578.74926758 C-88.45171223 573.93484479 -100.71931126 569.13845465 -113 564.375 C-112.42294515 551.38659274 -110.43561571 538.6160309 -108.5546875 525.7668457 C-108.19322114 523.27164777 -107.83219818 520.77638558 -107.47157955 518.28106499 C-106.69099788 512.886894 -105.9073185 507.49318751 -105.12083244 502.0998745 C-103.95885195 494.1315 -102.80272404 486.16228407 -101.64778849 478.19288582 C-99.60304706 464.08482701 -97.55270249 449.97758705 -95.49989345 435.87070013 C-93.71553089 423.60846334 -91.93297425 411.34596578 -90.15231323 399.08319092 C-90.03449254 398.27181432 -89.91667184 397.46043773 -89.79528082 396.62447396 C-89.19854915 392.51500644 -88.60184839 388.40553444 -88.00516379 384.29606009 C-86.80343542 376.01961242 -85.60148264 367.74319735 -84.39942932 359.46679688 C-84.27999466 358.64445662 -84.16055999 357.82211636 -84.0375061 356.9748567 C-82.21528857 344.42871272 -80.39172479 331.88276482 -78.56748962 319.33691406 C-72.94860198 280.69270929 -67.34364042 242.04653085 -61.75758827 203.39756602 C-60.38950698 193.9323678 -59.02022464 184.46734395 -57.6499939 175.00245667 C-57.3675611 173.05153401 -57.3675611 173.05153401 -57.07942259 171.06119877 C-56.15000547 164.6416025 -55.22041269 158.22203169 -54.29068947 151.80247974 C-52.5024763 139.45415876 -50.71627051 127.10555388 -48.93481445 114.7562561 C-47.43504664 104.35976203 -45.93113213 93.96387864 -44.42170328 83.56878263 C-43.66135034 78.33146476 -42.90297715 73.09388127 -42.15013313 67.85547829 C-41.46653622 63.09908186 -40.77724838 58.34354616 -40.0834446 53.58862817 C-39.83528299 51.88090777 -39.58918572 50.17288576 -39.34543228 48.46453059 C-34.9196449 17.47531983 -34.9196449 17.47531983 -22.0859375 6.87890625 C-15.0293857 1.7913174 -8.62862562 0.16918874 0 0 Z " fill="#D80300" transform="translate(1228,517.625)"/>
<path d="M0 0 C8.08069947 0.69271512 15.87212621 2.36067913 23.78442383 4.09521484 C25.26371553 4.41599912 26.7430932 4.73638719 28.22254944 5.05641174 C32.21947234 5.92221375 36.21514505 6.79365994 40.21058869 7.66625929 C44.40833808 8.5821316 48.60715284 9.49309473 52.80583191 10.4046936 C59.85828746 11.93664039 66.90998183 13.47204985 73.96118164 15.00976562 C82.08720956 16.78185682 90.21419091 18.54951629 98.34175473 20.31454885 C107.02686084 22.20068105 115.71133854 24.08969336 124.3955934 25.97974062 C126.88250041 26.52081994 129.36951289 27.06141213 131.8565464 27.60190964 C135.78286767 28.45538028 139.70875445 29.31082353 143.63432884 30.1677227 C145.06594583 30.4799363 146.49769581 30.79154086 147.92959595 31.10245323 C152.29071193 32.04966782 156.64725267 33.0150515 161 34 C162.17820501 34.26541218 163.35641003 34.53082436 164.57031822 34.80427933 C165.66442324 35.06179348 166.75852825 35.31930763 167.88578796 35.58462524 C168.85102733 35.80959497 169.81626669 36.0345647 170.81075573 36.2663517 C173 37 173 37 174 39 C174.2021809 40.44625159 174.35468014 41.89962569 174.48071289 43.35449219 C174.56072037 44.25592957 174.64072784 45.15736694 174.72315979 46.08612061 C174.80549362 47.06316956 174.88782745 48.04021851 174.97265625 49.046875 C175.06002548 50.05083313 175.14739471 51.05479126 175.2374115 52.08917236 C175.42170934 54.21748252 175.60398973 56.34596818 175.78442383 58.47460938 C176.06021735 61.72311327 176.34306612 64.97094449 176.62695312 68.21875 C176.80510985 70.28642199 176.98285744 72.35412927 177.16015625 74.421875 C177.24451431 75.39082703 177.32887238 76.35977905 177.41578674 77.35809326 C177.49264206 78.27213928 177.56949738 79.1861853 177.64868164 80.12792969 C177.71672501 80.92575867 177.78476837 81.72358765 177.85487366 82.54559326 C178.02175897 85.36799212 178.0230259 88.1733346 178 91 C179.05442795 91.22861221 180.1088559 91.45722443 181.19523621 91.69276428 C193.22016425 94.32067604 205.16953704 97.2109098 217.11328125 100.18359375 C219.12033073 100.68136289 221.12743247 101.17892135 223.13458252 101.67628479 C227.3565499 102.72285376 231.57820288 103.77067733 235.79959106 104.81958008 C245.6221139 107.26014596 255.44622788 109.69429458 265.27017021 112.12913895 C268.50348755 112.93058523 271.73674087 113.73228939 274.96998596 114.5340271 C291.82823395 118.71362906 308.69222088 122.86922193 325.5625 127 C326.65986481 127.26875946 327.75722961 127.53751892 328.8878479 127.81442261 C334.59153455 129.21110684 340.29554829 130.60644386 346 132 C347.38919852 136.41324445 346.02886541 139.39077031 344.37109375 143.5390625 C344.0747403 144.30691574 343.77838684 145.07476898 343.47305298 145.8658905 C342.81909176 147.55640981 342.16002536 149.24496061 341.49661255 150.93179321 C340.41500382 153.68220532 339.34634189 156.43733857 338.28100586 159.1940918 C337.11907214 162.2002029 335.95620885 165.20592632 334.789505 168.21018982 C330.28302909 179.81694295 325.87448226 191.46053229 321.46636963 203.10491943 C320.05943354 206.82059843 318.65082601 210.53563958 317.24169922 214.25048828 C312.84019251 225.85521621 308.44488258 237.46225448 304.0625 249.07421875 C303.6762999 250.097397 303.29009979 251.12057526 302.89219666 252.17475891 C301.10709398 256.90477674 299.32312987 261.63521855 297.54125977 266.36645508 C296.90382619 268.05681002 296.26637596 269.74715869 295.62890625 271.4375 C295.36307739 272.14464645 295.09724854 272.85179291 294.82336426 273.58036804 C291.61616413 282.07938849 288.29887589 290.53626451 285 299 C285.8599054 298.83293549 286.71981079 298.66587097 287.60577393 298.4937439 C312.57716754 293.65834679 337.58651761 289.03651269 362.609375 284.4765625 C363.43392417 284.32630049 364.25847335 284.17603848 365.10800886 284.02122307 C375.80537601 282.07205526 386.50326514 280.12575958 397.20127022 278.18009663 C407.90028851 276.23412953 418.59883971 274.28559887 429.29736328 272.33691406 C430.29978695 272.15432981 431.30221062 271.97174557 432.33501077 271.78362846 C436.45577836 271.03305669 440.57654445 270.28247667 444.69730532 269.53186798 C451.07317044 268.3704908 457.44906591 267.2092804 463.82498276 266.04818726 C515.40529573 256.65495959 566.98100616 247.23653058 618.55653524 237.81707752 C628.4761403 236.00543296 638.39579098 234.19403828 648.31545782 232.38273203 C657.80983071 230.64907331 667.30415999 228.9151758 676.79847574 227.1812042 C683.60456947 225.93822998 690.41073406 224.69564471 697.21695375 223.45336044 C717.38539728 219.77201914 737.55312009 216.08707126 757.71510577 212.370502 C760.32364937 211.8897827 762.93227383 211.40950503 765.54093361 210.92941666 C766.78757917 210.69998261 766.78757917 210.69998261 768.0594095 210.46591353 C769.69373255 210.16514461 771.32805949 209.86439681 772.96239054 209.56367135 C777.56259698 208.71688949 782.16219828 207.8669169 786.76132774 207.01430607 C788.84861398 206.62788118 790.93618184 206.24302477 793.02389145 205.85889435 C795.51016445 205.40137645 797.99596472 204.94127838 800.48117447 204.47801971 C801.55796337 204.28065468 802.63475227 204.08328964 803.74417114 203.87994385 C804.67046892 203.70857029 805.5967667 203.53719673 806.55113411 203.36063004 C809 203 809 203 813 203 C809.89281016 217.28274766 806.52267841 231.49662135 803.1015625 245.70703125 C802.51739072 248.13857295 801.93335947 250.57014842 801.34945679 253.00175476 C800.09876209 258.20890186 798.84716349 263.41583036 797.59472656 268.62255859 C795.75889236 276.25470769 793.92486243 283.88728952 792.09130716 291.51998639 C791.23041298 295.10369808 790.36945649 298.6873948 789.50848389 302.27108765 C789.33649121 302.98698669 789.16449853 303.70288573 788.98729396 304.44047868 C787.75573075 309.5665535 786.52384991 314.69255192 785.29180908 319.81851196 C780.6572591 339.10084274 776.02601152 358.3839626 771.3984375 377.66796875 C770.9389163 379.5828733 770.9389163 379.5828733 770.47011185 381.53646278 C768.92962153 387.95604705 767.38920242 394.37564839 765.84881592 400.79525757 C763.9848763 408.56318265 762.12065759 416.33104074 760.25634766 424.09887695 C760.10147094 424.74418692 759.94659421 425.38949689 759.78702426 426.0543617 C759.00439861 429.31524705 758.22176855 432.57613134 757.43913651 435.83701515 C756.03228189 441.69876941 754.62546635 447.56053304 753.21864772 453.42229593 C752.4374334 456.67736433 751.65621657 459.93243214 750.875 463.1875 C750.56249999 464.48958333 750.24999999 465.79166666 749.9375 467.09375 C748.06250328 474.90623634 748.06250328 474.90623634 747.59375167 476.85936797 C747.28124606 478.16147473 746.96874049 479.46358151 746.65623498 480.7656883 C745.87507123 484.0205382 745.09390664 487.27538791 744.31274033 490.5302372 C742.90545955 496.39389205 741.49818468 502.25754832 740.09094119 508.12121212 C739.30835297 511.38207861 738.52575982 514.64294392 737.74316406 517.90380859 C737.58826397 518.54923575 737.43336389 519.19466291 737.27376986 519.85964847 C735.26020327 528.24960132 733.24642417 536.63950315 731.23244095 545.029356 C729.69135119 551.4492419 728.15034225 557.8691472 726.609375 564.2890625 C726.30340141 565.56379047 725.99742783 566.83851845 725.68218231 568.15187454 C721.15782963 587.00167436 716.63785029 605.85251957 712.12009668 624.70390201 C710.88260528 629.86750194 709.64483153 635.03103412 708.40686035 640.19451904 C708.23420387 640.91465691 708.06154738 641.63479477 707.88365889 642.376755 C707.02039299 645.97732522 706.15708798 649.57788606 705.29375458 653.17844009 C703.44924698 660.8712607 701.60570331 668.56431109 699.76339364 676.25765836 C698.36747736 682.08652302 696.97000092 687.91501248 695.57195282 693.74336624 C694.99892843 696.13341169 694.42643226 698.52358385 693.85449982 700.91389084 C693.07269097 704.18104913 692.28901637 707.44775447 691.50488281 710.71435547 C691.27860703 711.66196495 691.05233124 712.60957443 690.81919861 713.58589935 C689.65477288 718.42759375 688.40995047 723.22382977 687 728 C686.67 728 686.34 728 686 728 C685.18887614 718.61967401 684.73877336 709.25818556 684.46214294 699.84854126 C684.41616099 698.36052787 684.36991655 696.87252258 684.32343537 695.3845247 C684.19757471 691.33101006 684.07543727 687.27739082 683.95396149 683.22374272 C683.82186263 678.83760221 683.68627187 674.45156939 683.55114746 670.06552124 C683.28734977 661.48437826 683.02681656 652.90313919 682.76749068 644.32186003 C682.55640567 637.33863998 682.34416822 630.35545583 682.13112068 623.37229538 C682.1007272 622.37601661 682.07033371 621.37973783 682.03901922 620.35326879 C681.97725582 618.32882649 681.91549034 616.30438426 681.85372282 614.27994208 C681.27517784 595.31324137 680.70040414 576.3464278 680.12688 557.3795747 C679.63596002 541.14764801 679.14160631 524.91582883 678.64477539 508.68408203 C678.06669603 489.79788705 677.49093741 470.91162351 676.91869217 452.02525079 C676.85748621 450.00545451 676.79627668 447.98565834 676.73506355 445.96586227 C676.70495333 444.97232558 676.6748431 443.97878888 676.64382045 442.95514501 C676.43272895 435.99517835 676.21999432 429.03526306 676.00658989 422.07536697 C675.74588075 413.57145762 675.48769452 405.06747597 675.2326191 396.56339569 C675.10271096 392.23443089 674.97174548 387.90550574 674.83767128 383.57666779 C674.28517808 365.71381133 673.834706 347.87420935 674 330 C673.17368859 330.06691544 672.34737719 330.13383087 671.49602604 330.20277405 C582.50788226 337.40365751 493.49637202 344.3084392 404.48716076 351.24280739 C388.21425862 352.51058993 371.94144954 353.77956168 355.66870117 355.04931641 C336.54436789 356.54157881 317.41997589 358.03308523 298.29549128 359.52340698 C296.26448944 359.68168015 294.23348769 359.83995448 292.20248604 359.99822998 C291.20415792 360.07602928 290.20582981 360.15382857 289.17724932 360.23398542 C282.16931439 360.78016508 275.16142229 361.32689227 268.15354729 361.87384033 C259.68044199 362.53513402 251.20727395 363.19561659 242.73402207 363.85502952 C238.42111693 364.19069365 234.10824204 364.52673503 229.79544449 364.86377907 C225.85610361 365.17162742 221.91668158 365.47841417 217.97719032 365.78433204 C216.54941735 365.89539517 215.12167516 366.00685496 213.69396638 366.11874032 C211.76255228 366.2700417 209.83101646 366.41978703 207.89947414 366.56944275 C206.82477287 366.65320128 205.75007159 366.73695982 204.64280361 366.82325649 C202.76514095 366.94882946 200.88185697 367 199 367 C200.3610324 357.50577327 202.10710575 348.12400808 204.03759766 338.73095703 C204.34044698 337.24559387 204.64302048 335.76017445 204.94534302 334.27470398 C205.76111779 330.2703412 206.58072502 326.26677178 207.4010663 322.26334238 C208.26973775 318.02065544 209.1348261 313.77723789 210.00033569 309.53390503 C211.64568176 301.47002548 213.29423731 293.40680558 214.94394624 285.34381759 C216.79021906 276.31929016 218.63278759 267.29400781 220.47508168 258.26866746 C223.21836346 244.83010332 225.9631856 231.39185406 228.71141887 217.9543016 C229.18105253 215.65766716 229.65042311 213.36097906 230.11977577 211.06428719 C231.63514275 203.6520069 233.15530985 196.24075369 234.68508446 188.83143198 C235.43656925 185.19137138 236.18672757 181.55103784 236.93688464 177.91070342 C237.29810423 176.1599992 237.66004439 174.40944348 238.02273107 172.6590426 C238.52391692 170.24016142 239.0227451 167.82080497 239.52108765 165.40133667 C239.67157429 164.67836985 239.82206092 163.95540304 239.97710776 163.21052814 C240.73733838 159.63460818 240.73733838 159.63460818 241 156 C239.4679895 155.21520264 239.4679895 155.21520264 237.9050293 154.41455078 C203.08270785 136.57246476 203.08270785 136.57246476 187.27441406 128.19970703 C182.69197232 125.78256247 178.09475902 123.39362058 173.5 121 C165.7249943 116.948137 157.95073709 112.89486964 150.20751953 108.7824707 C145.93415516 106.51833257 141.63845362 104.31451231 137.3046875 102.16796875 C125.50400752 96.2705531 115.03948807 89.86651911 104.83886719 81.49902344 C102.10516747 79.27054279 99.3040452 77.13938263 96.5 75 C94.94539063 73.80310547 94.94539063 73.80310547 93.359375 72.58203125 C86.58555491 67.37155679 79.79034472 62.18890501 73 57 C64.11000325 50.20662638 55.22476337 43.40749817 46.359375 36.58203125 C42.49527993 33.60973963 38.6228758 30.64833637 34.75 27.6875 C34.03908203 27.14399902 33.32816406 26.60049805 32.59570312 26.04052734 C28.88214206 23.20197202 25.16783575 20.3643943 21.453125 17.52734375 C17.90699094 14.81872142 14.36305063 12.10725442 10.82080078 9.39355469 C9.19349091 8.14808878 7.56370758 6.90585622 5.93359375 5.6640625 C5.10988281 5.03242187 4.28617188 4.40078125 3.4375 3.75 C2.75558594 3.22921875 2.07367187 2.7084375 1.37109375 2.171875 C0.91863281 1.78515625 0.46617188 1.3984375 0 1 C0 0.67 0 0.34 0 0 Z " fill="#D80300" transform="translate(1435,1232)"/>
<path d="M0 0 C1.79978499 20.57945854 3.02651045 41.18432988 4.2220788 61.80561042 C4.43980876 65.55596884 4.65918217 69.3062305 4.87850654 73.05649596 C5.39594637 81.90527703 5.9105535 90.75421962 6.42333984 99.60327148 C6.94979254 108.68724282 7.4812547 117.77091157 8.01510537 126.85445088 C8.47668318 134.71141397 8.93509077 142.56855777 9.39101112 150.42585117 C9.66192003 155.09407989 9.93399269 159.76223286 10.2091713 164.43021202 C10.46727993 168.81086183 10.72139495 173.19172618 10.97257233 177.5727787 C11.06469095 179.16827085 11.15815799 180.76368588 11.25316238 182.35900879 C13.30344406 216.84734935 13.30344406 216.84734935 3 230 C-1.47889924 235.00862557 -6.31380947 239.68811048 -11.0859375 244.4140625 C-12.47125807 245.796319 -13.85598298 247.17917272 -15.24014282 248.56259155 C-18.1321132 251.44997884 -21.02889542 254.3324134 -23.9296875 257.2109375 C-27.63042229 260.88339212 -31.32242894 264.56446438 -35.01128197 268.24884987 C-38.55385646 271.78624536 -42.10108752 275.31895718 -45.6484375 278.8515625 C-46.64921389 279.8495178 -46.64921389 279.8495178 -47.67020798 280.86763382 C-49.57885192 282.76932906 -51.4908161 284.66762175 -53.40380859 286.56494141 C-54.23017067 287.38962669 -54.23017067 287.38962669 -55.07322693 288.23097229 C-57.90770862 291.03505438 -60.8016044 293.71921045 -63.8241272 296.32015991 C-68.57133433 300.43564336 -72.98295651 304.85799454 -77.41015625 309.3125 C-78.79956386 310.70414911 -80.1889716 312.09579809 -81.5783844 313.48744202 C-83.05645966 314.96886643 -84.53327903 316.45153224 -86.00973511 317.93457031 C-89.10143051 321.03990481 -92.19704101 324.14131714 -95.29321289 327.2421875 C-101.86512489 333.82515175 -108.43278827 340.41234722 -115 347 C-122.09238307 354.11445877 -129.18551482 361.2281616 -136.28355694 368.3369751 C-139.35446138 371.4128292 -142.42291891 374.49109653 -145.48945618 377.57130432 C-146.94100529 379.02854961 -148.3937217 380.48461929 -149.84695435 381.94018555 C-151.60927847 383.70535279 -153.36982779 385.47229476 -155.12814331 387.24145508 C-159.3702537 391.48394383 -163.6753475 395.5673015 -168.25733948 399.44213867 C-170.07797402 401.06970532 -171.68890395 402.80261701 -173.3125 404.625 C-179.59580222 411.03830158 -188.65537069 414.02474665 -197.5 414.3125 C-208.84200976 414.16014465 -217.86230108 409.85986069 -225.8984375 402.1875 C-235.57341139 392.06347668 -235.56852522 381.02545919 -235.35717773 367.78491211 C-235.34075232 365.86524008 -235.32540207 363.94555862 -235.31100368 362.02587032 C-235.05119706 334.28909699 -234.23048329 306.55368988 -233.48341874 278.82651019 C-233.25858211 270.47662081 -233.04000027 262.12657048 -232.82148509 253.77651369 C-232.43141576 238.8791197 -232.03579835 223.98187845 -231.63696289 209.0847168 C-231.25134668 194.6811855 -230.87008411 180.2775472 -230.4934082 165.8737793 C-230.01441099 147.55768731 -229.53164624 129.24169846 -229.04575096 110.92578818 C-228.891894 105.12201107 -228.73936667 99.31819989 -228.58729744 93.51437569 C-228.40224425 86.45456166 -228.21471759 79.39481812 -228.02414305 72.3351509 C-227.92720747 68.74247725 -227.83127215 65.14978497 -227.73820877 61.55700874 C-227.63704956 57.65330844 -227.53074082 53.74975759 -227.42396545 49.84620667 C-227.39575071 48.72734764 -227.36753596 47.60848862 -227.33846623 46.45572478 C-226.72709464 24.72709464 -226.72709464 24.72709464 -225 23 C-222.17126972 22.61716877 -219.35562467 22.29430654 -216.51664734 22.00657654 C-215.16590149 21.86441234 -215.16590149 21.86441234 -213.78786784 21.71937615 C-210.7466186 21.40040029 -207.70474634 21.0878068 -204.6628418 20.77514648 C-202.49183301 20.54877596 -200.32086423 20.32202147 -198.14993286 20.09490967 C-192.23504007 19.47728931 -186.31958352 18.86522957 -180.4040029 18.25423694 C-174.22490844 17.61520431 -168.04630079 16.97149819 -161.86763 16.3283844 C-151.48636425 15.24854645 -141.10475072 14.17210246 -130.72290039 13.09790039 C-120.03767802 11.99230503 -109.35277334 10.88370286 -98.66821289 9.77172852 C-98.0106112 9.70329034 -97.35300952 9.63485217 -96.67548051 9.56434011 C-96.0190267 9.49602104 -95.36257289 9.42770197 -94.68622655 9.35731262 C-81.91790173 8.02851484 -69.14925241 6.70285676 -56.38049722 5.37820172 C-52.69383896 4.99553534 -49.0072405 4.61229721 -45.32065392 4.22894096 C-39.53025618 3.62698424 -33.7396435 3.02713846 -27.94885635 2.42893982 C-25.8202735 2.20873247 -23.69176293 1.98782508 -21.5633297 1.76617622 C-18.66384767 1.46435792 -15.7641159 1.16506566 -12.86430359 0.86643982 C-11.59295446 0.73322528 -11.59295446 0.73322528 -10.2959215 0.59731954 C-6.83721322 0.24351105 -3.4809601 0 0 0 Z " fill="#D80300" transform="translate(1410,1256)"/>
<path d="M0 0 C7.1574535 7.53971161 10.02687724 16.17778679 12.34301758 26.14453125 C12.58022144 27.13316571 12.81742531 28.12180017 13.06181717 29.14039326 C13.846422 32.41979572 14.61852921 35.70200692 15.390625 38.984375 C15.94931416 41.33076132 16.5087758 43.67696383 17.06895447 46.022995 C18.4194832 51.68766744 19.76199007 57.354196 21.10083479 63.02164036 C22.65691387 69.60674617 24.22292407 76.18947778 25.78950477 82.77209175 C28.67495196 94.89767227 31.55133854 107.02538441 34.42288184 119.15426433 C37.4655249 132.00565077 40.5165956 144.85502661 43.57002831 157.70385361 C48.69683434 179.27934581 53.81605774 200.85662475 58.91345692 222.43908501 C60.10456881 227.47987864 61.30095925 232.51938615 62.50149155 237.5579443 C63.26533722 240.76556875 64.02663165 243.9737954 64.7874527 247.18213844 C65.14127153 248.67137476 65.49626029 250.16033368 65.85250092 251.64899254 C66.3360208 253.66999107 66.81546637 255.69191441 67.29394531 257.71411133 C67.56386292 258.84714188 67.83378052 259.98017242 68.11187744 261.14753723 C68.68359375 263.921875 68.68359375 263.921875 68.68359375 266.921875 C51.18911523 274.96739488 33.6738529 282.956387 16.05859375 290.734375 C2.15708482 296.87411261 -11.64352084 303.2139531 -25.41744995 309.63427734 C-38.29293987 315.63300087 -51.2241212 321.48598634 -64.22311401 327.21191406 C-72.2271609 330.73837856 -80.20549711 334.30583562 -88.12109375 338.02734375 C-88.82452408 338.35793289 -89.52795441 338.68852203 -90.25270081 339.02912903 C-93.57983014 340.59573356 -96.9023156 342.17144726 -100.21948242 343.7590332 C-101.37681885 344.307771 -102.53415527 344.85650879 -103.7265625 345.421875 C-104.73855713 345.9065625 -105.75055176 346.39125 -106.79321289 346.890625 C-109.31640625 347.921875 -109.31640625 347.921875 -112.31640625 347.921875 C-126.21337895 319.62273322 -140.09447426 291.3162939 -153.8878479 262.96647644 C-158.29585908 253.90717521 -162.71199947 244.85184166 -167.12890625 235.796875 C-167.53817352 234.95771545 -167.9474408 234.11855591 -168.36911011 233.25396729 C-173.72297836 222.27680742 -179.08471041 211.30352491 -184.45439148 200.33409119 C-186.82304914 195.49484063 -189.1901051 190.65482199 -191.55297852 185.81274414 C-192.00452805 184.88743393 -192.45607758 183.96212372 -192.92131042 183.0087738 C-193.80957967 181.18846762 -194.6977748 179.36812526 -195.58589172 177.54774475 C-197.88966625 172.82951902 -200.2052713 168.11757227 -202.54066467 163.41491699 C-203.48807654 161.50488336 -204.43069649 159.59257478 -205.37133789 157.67919922 C-206.45110122 155.48483647 -207.53924858 153.29456507 -208.63842773 151.10986328 C-213.62396872 140.91815927 -215.68116771 131.18325257 -213.31640625 119.921875 C-208.2125248 105.73096426 -198.90651858 98.64529487 -186.50390625 90.609375 C-184.36641674 89.20429683 -182.22973055 87.79799602 -180.09375 86.390625 C-179.54159821 86.02788986 -178.98944641 85.66515472 -178.42056274 85.29142761 C-172.09152357 81.12940201 -165.8288086 76.87071423 -159.56640625 72.609375 C-158.38790502 71.80828054 -157.2093566 71.0072555 -156.03076172 70.20629883 C-153.65158199 68.58926899 -151.27272231 66.97176971 -148.89404297 65.35400391 C-145.3294656 62.93015939 -141.76270875 60.509537 -138.1953125 58.08984375 C-137.61061188 57.69325058 -137.02591125 57.29665741 -136.42349243 56.88804626 C-135.24599677 56.08938917 -134.06849637 55.29073905 -132.89099121 54.49209595 C-123.52856616 48.14156985 -114.17054944 41.78459546 -104.81640625 35.421875 C-101.72858594 33.32199943 -98.6406909 31.22223385 -95.55273438 29.12255859 C-93.31693578 27.60222904 -91.08125698 26.08172445 -88.84570312 24.56103516 C-82.34093683 20.13689736 -75.83260442 15.71812917 -69.3168335 11.31021118 C-65.59090107 8.78863884 -61.87424839 6.25381161 -58.16015625 3.71484375 C-56.29585799 2.45010052 -54.43129166 1.1857523 -52.56640625 -0.078125 C-51.73979492 -0.64748779 -50.91318359 -1.21685059 -50.06152344 -1.8034668 C-34.32261664 -12.41303058 -14.74177616 -13.22533713 0 0 Z " fill="#D80300" transform="translate(709.31640625,532.078125)"/>
<path d="M0 0 C8.8600333 5.99756101 13.90100359 16.49539677 19.09375 25.5625 C20.32378764 27.69035343 21.55427632 29.81794619 22.78515625 31.9453125 C23.42598145 33.05551758 24.06680664 34.16572266 24.72705078 35.30957031 C27.78544829 40.59259774 30.87477493 45.85734915 33.965271 51.12164307 C35.39819236 53.56257312 36.83007522 56.00411167 38.26196289 58.44564819 C38.98668313 59.68137606 39.7114554 60.91707341 40.4362793 62.15274048 C42.99954997 66.52272713 45.56072385 70.89393829 48.12109375 75.265625 C48.84959998 76.50920147 49.57811556 77.75277246 50.30664062 78.99633789 C51.73695761 81.43786452 53.1665275 83.8798266 54.59570312 86.32202148 C57.88688753 91.94276634 61.19193275 97.55449435 64.53515625 103.14453125 C65.42412598 104.63448608 65.42412598 104.63448608 66.33105469 106.15454102 C67.4197891 107.97665468 68.51252121 109.79638927 69.61035156 111.61303711 C76.5591767 123.25243449 81.03659587 134.36281463 77.6484375 148.0546875 C75.68705017 153.74106252 72.77889456 159.01863661 69.98730469 164.33203125 C68.62773181 166.92348809 67.28569527 169.52356888 65.9453125 172.125 C61.06736129 181.56415233 56.0929343 190.94227781 50.96875 200.25 C45.69261631 209.83515173 40.67258001 219.54117548 35.67984009 229.27557373 C30.99067955 238.41300713 26.19048386 247.47282226 21.2265625 256.46484375 C17.08964212 263.99158568 13.14372368 271.61155893 9.21875 279.25 C4.84249211 287.766691 0.40931032 296.24138254 -4.21875 304.625 C-9.07136364 313.41788302 -13.69848178 322.31474531 -18.28125 331.25 C-23.31332604 341.06129285 -28.43827955 350.80260644 -33.76904297 360.45605469 C-38.29170217 368.68268165 -42.58050422 377.02542775 -46.8694458 385.37515259 C-52.13490947 395.61868588 -57.5856868 405.7392101 -63.28125 415.75 C-66.73695376 415.11957179 -69.9822094 414.25966671 -73.30712891 413.13037109 C-74.29064331 412.79793396 -75.27415771 412.46549683 -76.28747559 412.12298584 C-77.88154236 411.57870941 -77.88154236 411.57870941 -79.5078125 411.0234375 C-81.18816589 410.45354095 -81.18816589 410.45354095 -82.90246582 409.87213135 C-86.57155128 408.62646353 -90.23896252 407.37595033 -93.90625 406.125 C-95.80204388 405.48002217 -97.69783798 404.83504498 -99.59368706 404.19022942 C-126.88962777 394.90398436 -154.14297665 385.4884034 -181.28125 375.75 C-179.03871482 367.96512663 -176.45424754 360.32331401 -173.7734375 352.6796875 C-173.33117095 351.4138569 -172.88907746 350.14796582 -172.44714355 348.88201904 C-171.26521383 345.4983304 -170.08040137 342.11565809 -168.89488983 338.73322296 C-167.89899649 335.89074803 -166.90474976 333.04769815 -165.91040993 330.20467949 C-159.1917975 310.99692522 -152.42520663 291.80645437 -145.61669922 272.63037109 C-140.13363536 257.18348625 -134.70161585 241.71898644 -129.28125 226.25 C-123.16697303 208.80119604 -117.02835778 191.36149966 -110.84375 173.9375 C-104.66678292 156.53449004 -98.54807979 139.11149154 -92.45537949 121.67884064 C-84.0092815 97.51259758 -75.52435463 73.36063967 -66.93913269 49.2434082 C-65.30794247 44.65673015 -63.68927433 40.06620172 -62.09506226 35.46653748 C-61.46879603 33.66099664 -60.83753856 31.85718939 -60.20605469 30.0534668 C-59.50910416 28.06189548 -58.81973426 26.06763723 -58.14160156 24.06958008 C-54.23338341 12.98608466 -48.84173349 4.08604725 -38.28125 -1.5 C-25.52180355 -7.33288981 -12.32749167 -6.75478996 0 0 Z " fill="#D80300" transform="translate(1484.28125,779.25)"/>
</svg>
